<?xml version="1.0" encoding="UTF-8" standalone="no"?>
<svg
   xmlns:dc="http://purl.org/dc/elements/1.1/"
   xmlns:cc="http://creativecommons.org/ns#"
   xmlns:rdf="http://www.w3.org/1999/02/22-rdf-syntax-ns#"
   xmlns:svg="http://www.w3.org/2000/svg"
   xmlns="http://www.w3.org/2000/svg"
   viewBox="0 0 682.66669 682.66669"
   height="682.66669"
   width="682.66669"
   xml:space="preserve"
   id="svg10"
   version="1.1"><metadata
     id="metadata16"><rdf:RDF><cc:Work
         rdf:about=""><dc:format>image/svg+xml</dc:format><dc:type
           rdf:resource="http://purl.org/dc/dcmitype/StillImage" /><dc:title></dc:title></cc:Work></rdf:RDF></metadata><defs
     id="defs14"><clipPath
       id="clipPath26"
       clipPathUnits="userSpaceOnUse"><path
         id="path24"
         d="M 0,512 H 512 V 0 H 0 Z" /></clipPath><clipPath
       id="clipPath50"
       clipPathUnits="userSpaceOnUse"><path
         id="path48"
         d="M 344.873,267.409 H 466.706 V 64.2169 H 344.873 Z" /></clipPath><clipPath
       id="clipPath66"
       clipPathUnits="userSpaceOnUse"><path
         id="path64"
         d="M 274.753,269.966 H 454.504 V 137.022 H 274.753 Z" /></clipPath><clipPath
       id="clipPath82"
       clipPathUnits="userSpaceOnUse"><path
         id="path80"
         d="M 215.126,267.745 H 428.152 V 202.263 H 215.126 Z" /></clipPath><clipPath
       id="clipPath102"
       clipPathUnits="userSpaceOnUse"><path
         id="path100"
         d="M 121.064,281.798 H 405.789 V 189.045 H 121.064 Z" /></clipPath></defs><g
     transform="matrix(1.3333333,0,0,-1.3333333,0,682.66667)"
     id="g18"><g
       id="g20"><g
         clip-path="url(#clipPath26)"
         id="g22"><g
           transform="translate(4.3667,296.855)"
           id="g28"><path
             id="path30"
             style="fill:#000000;fill-opacity:1;fill-rule:nonzero;stroke:none"
             d="m 0,0 c 7.776,22.088 34.085,40.638 68.157,33.528 40.269,-8.401 57.857,-55.847 48.358,-89.92 -38.648,-138.632 71.678,-150.144 93.042,-168.015 -0.076,12.251 -2.249,38.766 6.402,85.73 11.112,60.322 33.732,87.507 60.322,103.578 26.59,16.073 51.874,10.981 70.552,15.729 18.678,4.749 18.144,38.18 29.107,63.129 10.511,23.92 23.059,32.131 33.039,39.653 9.979,7.522 13.691,10.864 18.305,14.584 4.613,3.721 16.072,11.906 18.007,11.757 1.934,-0.149 1.934,-4.018 2.976,-4.613 1.042,-0.596 4.613,4.167 6.4,5.655 1.785,1.488 5.059,3.869 6.101,1.488 1.041,-2.381 -7.143,-20.834 -5.953,-23.067 1.19,-2.233 2.679,-2.233 11.013,-4.613 8.334,-2.381 20.537,-15.775 23.811,-20.091 3.275,-4.316 6.25,-18.157 8.036,-21.132 1.786,-2.977 5.804,-7.293 7.441,-8.93 1.637,-1.637 2.976,-4.613 3.125,-7.738 0.149,-3.126 -1.488,-5.358 -2.827,-6.4 -1.339,-1.041 -0.149,-3.72 -1.489,-6.101 -1.339,-2.381 -3.274,-3.721 -4.464,-4.614 -1.191,-0.892 0.745,-2.975 -3.423,-7.738 -4.166,-4.762 -22.72,-5.607 -27.68,-10.766 -4.961,-5.158 -3.969,-17.859 -3.77,-24.804 0.199,-6.944 8.929,-22.224 9.723,-35.32 0.793,-13.095 -15.875,-49.605 -25.002,-59.329 -9.128,-9.723 -22.819,-40.081 -22.621,-46.828 0.198,-6.747 3.77,-21.629 5.755,-29.565 1.984,-7.936 3.571,-29.368 5.357,-31.154 1.785,-1.785 12.7,-3.571 16.271,-6.548 3.572,-2.976 4.167,-8.928 0.397,-15.477 -3.77,-6.548 -11.112,-5.555 -11.112,-5.555 0,0 3.571,-2.679 5.357,-6.548 1.787,-3.87 0.893,-10.715 -3.274,-12.798 -4.167,-2.084 -24.405,-3.572 -30.656,-2.977 -6.25,0.596 -9.227,2.382 -13.99,7.441 -4.761,5.06 -5.655,16.966 -6.845,18.158 -1.191,1.188 -8.93,-2.383 -15.775,-2.681 -6.845,-0.297 -24.406,-1.19 -24.406,-1.19 l -3.572,-2.977 c 0,0 8.632,-5.358 10.418,-13.097 1.785,-7.737 -1.786,-12.897 -9.327,-15.675 -7.54,-2.777 -22.62,0.794 -27.383,2.778 -4.762,1.983 -9.524,-1.192 -21.032,-1.192 -11.509,0 -37.702,4.764 -54.767,5.557 -17.063,0.795 -11.904,2.778 -15.477,5.953 -3.572,3.176 -6.349,1.985 -16.668,10.716 -2.601,2.2 -4.52,5.487 -5.892,9.267 -3.219,1.425 -6.435,2.981 -9.635,4.68 -43.09,22.873 -140.813,51.869 -121.791,162.002 6.359,36.824 11.662,74.642 -1.352,90.892 -13.015,16.25 -38.377,15.491 -51.796,-2.273 -13.42,-17.765 -3.115,-33.85 3.568,-37.44 6.682,-3.591 32.455,-0.469 27.38,-21.168 -2.586,-10.55 -26.683,-9.994 -43.305,4.75 C -3.487,-46.566 -7.775,-22.088 0,0" /></g><g
           transform="translate(229.5801,206.1035)"
           id="g32"><path
             id="path34"
             style="fill:#8a231c;fill-opacity:1;fill-rule:nonzero;stroke:none"
             d="m 0,0 c 2.589,-2.405 5.006,-5.507 6.911,-8.438 4.314,-6.628 6.525,-13.776 8.037,-21.136 -29.027,-5.182 -60.002,-8.704 -60.002,-8.704 4.998,1.507 17.288,29.462 22.316,36.391 C -21.272,0.122 -11.969,0.6 0,0" /></g><g
           transform="translate(294.9043,99.5244)"
           id="g36"><path
             id="path38"
             style="fill:#8a231c;fill-opacity:1;fill-rule:nonzero;stroke:none"
             d="M 0,0 C 0,0 4.835,31.711 42.844,44.155 80.852,56.604 -22.058,44.954 -21.323,36.781 -20.574,28.608 -11.521,7.333 0,0" /></g><g
           transform="translate(468.8291,274.9058)"
           id="g40"><path
             id="path42"
             style="fill:#be202e;fill-opacity:1;fill-rule:nonzero;stroke:none"
             d="m 0,0 c 0,0 15.159,-57.365 -17.787,-89.921 -54.463,-53.85 -42.772,-137.427 -34.277,-163.428 8.515,-26.015 -20.843,31.001 -50.621,44.603 -26.307,12.023 -22.115,-17.084 -22.115,-17.084 0,0 -9.587,22.525 -26.472,51.08 -16.879,28.556 -44.04,46.788 -41.976,31.501 2.074,-15.303 19.323,-32.132 19.323,-32.132 0,0 -30.453,17.141 -45.313,39.782 -14.872,22.641 -1.395,52.821 -25.215,62.771 -23.813,9.951 -15.456,-28.959 -39.85,-34.253 -24.382,-5.291 -43.054,-9.383 -63.462,19.26 0,0 46.431,18.921 67.71,31.316 21.258,12.404 49.048,59.672 91.935,59.834 42.894,0.158 58.541,2.255 81.149,12.288 C -84.373,25.637 -47.859,21.077 0,0" /></g><g
           id="g44"><g
             id="g46" /><g
             id="g58"><g
               style="opacity:0.30000299"
               id="g56"
               clip-path="url(#clipPath50)"><g
                 id="g54"
                 transform="translate(466.4668,267.4087)"><path
                   id="path52"
                   style="fill:#027e97;fill-opacity:1;fill-rule:nonzero;stroke:none"
                   d="m 0,0 c 0,0 5.555,-39.98 -36.912,-77.691 -32.685,-29.004 -80.401,-110.236 -84.682,-125.501 0,0 16.059,68.369 63.83,112.344 C 2.553,-35.359 -3.453,-10.743 0,0" /></g></g></g></g><g
           id="g60"><g
             id="g62" /><g
             id="g74"><g
               style="opacity:0.30000299"
               id="g72"
               clip-path="url(#clipPath66)"><g
                 id="g70"
                 transform="translate(454.5049,269.9658)"><path
                   id="path68"
                   style="fill:#027e97;fill-opacity:1;fill-rule:nonzero;stroke:none"
                   d="m 0,0 c 0,0 -3.636,-73.918 -89.237,-95.231 -78.885,-19.646 -90.515,-37.712 -90.515,-37.712 0,0 18.061,29.658 74.283,40.379 C -33.718,-78.895 -10.231,-41.881 0,0" /></g></g></g></g><g
           id="g76"><g
             id="g78" /><g
             id="g90"><g
               style="opacity:0.30000299"
               id="g88"
               clip-path="url(#clipPath82)"><g
                 id="g86"
                 transform="translate(215.126,206.1758)"><path
                   id="path84"
                   style="fill:#027e97;fill-opacity:1;fill-rule:nonzero;stroke:none"
                   d="m 0,0 c 0,0 70.374,-5.646 94.583,-3.373 24.215,2.275 78.178,-6.403 118.443,64.942 0,0 -38.299,-61.711 -110.028,-60.014 C 102.434,1.568 0,0 0,0" /></g></g></g></g><g
           transform="translate(258.209,231.9189)"
           id="g92"><path
             id="path94"
             style="fill:#be202e;fill-opacity:1;fill-rule:nonzero;stroke:none"
             d="m 0,0 c -71.867,-8.115 -55.242,-55.832 -137.145,-44.834 14.105,-0.852 52.744,22.912 69.312,35.808 24.151,18.797 49.043,41.078 91.937,41.236 42.889,0.153 79.222,-6.575 101.834,3.455 7.106,3.152 18.112,8.371 15.894,7.322 C 136.432,32.278 127.134,14.336 0,0" /></g><g
           id="g96"><g
             id="g98" /><g
             id="g110"><g
               style="opacity:0.30000299"
               id="g108"
               clip-path="url(#clipPath102)"><g
                 id="g106"
                 transform="translate(258.209,231.9189)"><path
                   id="path104"
                   style="fill:#be202e;fill-opacity:1;fill-rule:nonzero;stroke:none"
                   d="m 0,0 c -71.867,-8.115 -55.242,-52.118 -137.145,-41.12 14.105,-0.851 60.379,14.82 76.336,28.464 29.758,25.445 45.949,39.089 88.843,39.246 42.889,0.154 75.287,-0.944 97.904,9.075 5.426,2.408 16.309,11.92 21.642,14.214 C 142.18,39.17 127.134,14.336 0,0" /></g></g></g></g></g></g></g></svg>