<?xml version="1.0" encoding="UTF-8" standalone="no"?>
<svg
   xmlns:dc="http://purl.org/dc/elements/1.1/"
   xmlns:cc="http://creativecommons.org/ns#"
   xmlns:rdf="http://www.w3.org/1999/02/22-rdf-syntax-ns#"
   xmlns:svg="http://www.w3.org/2000/svg"
   xmlns="http://www.w3.org/2000/svg"
   height="256"
   width="256"
   viewBox="0 0 256 256"
   y="0px"
   x="0px"
   version="1.1"><metadata
     id="metadata8389"><rdf:RDF><cc:Work
         rdf:about=""><dc:format>image/svg+xml</dc:format><dc:type
           rdf:resource="http://purl.org/dc/dcmitype/StillImage" /><dc:title></dc:title></cc:Work></rdf:RDF></metadata><defs
     id="defs8387" /><style
     id="style8354"
     type="text/css">
	.st0{fill:#92D5D7;stroke:#036267;stroke-width:5;stroke-miterlimit:10;}
	.st1{fill:#036267;}
	.st2{fill:#FFFFFF;stroke:#92D5D7;stroke-width:2;stroke-miterlimit:10;}
	.st3{fill:none;stroke:#036267;stroke-width:5;stroke-miterlimit:10;}
</style><g
     transform="matrix(0.94961338,0,0,0.94961338,-15.671636,-48.353797)"
     id="g8382"><circle
       style="fill:#92d5d7;stroke:#036267;stroke-width:5;stroke-miterlimit:10"
       id="circle8375"
       r="121.4"
       cy="191.89999"
       cx="149.7"
       class="st0" /><g><path
         style="fill:#ffffff;stroke:#92d5d7;stroke-width:2;stroke-miterlimit:10"
         id="path8377"
         d="m 151.7,172 c 3.8,-9 8.2,-29.1 8.2,-29.1 29.8,-51.3 10.5,-60.9 9.4,-57.7 -1.2,3.2 -11.9,22.4 -11.9,22.4 -14.9,17.9 -20.2,32.9 -20.7,34.3 -0.5,1.3 -5.4,23.4 -5.4,23.4 0.5,-7 2.2,-23.6 2.2,-23.6 13.2,-51 -5.9,-51.5 -5.9,-51.5 -1.7,5.4 -11.2,47.2 -14.2,57 -3,9.9 -1.3,31.4 -1.3,31.4 l -3.3,-7.7 C 89.9,108.4 80.5,122.1 80.5,122.1 l 18.2,87.4 c 0,0 15.9,60.7 2.8,77.1 -3.1,3.9 -5.5,8.1 -7.4,12.1 -0.1,0.2 4.6,4 10.4,6.6 6.4,2.9 13.5,4.5 13.5,4.5 0,0 8,2.4 15.2,3.1 7.2,0.7 14,-0.3 14,-0.6 0.5,-4.7 1.8,-10 4.5,-13 5.9,-6.5 10.4,-16.1 10.4,-16.1 17.4,-12.2 36.4,-39.2 36.4,-39.2 0,0 23.9,-14.6 24.7,-24.2 0.8,-9.6 6.9,-26.2 6.9,-26.2 l -6.6,0.3 0.2,-0.1 h 0.4 c -13.5,1.6 -18.8,15.1 -18.8,15.1 -15.7,12.2 -23.7,10.9 -23.7,10.9 0,0 -24.6,3.6 -20.4,-16.2 4.2,-19.9 24.8,-25 24.8,-25 l 16,5.4 c 19.3,17.9 27.4,5.7 27.4,5.7 l -14.4,-20 c 0,0 -21,-16.4 -30.7,-15.9 -9.7,0.5 -37,20.6 -37,20.6"
         class="st2" /></g></g></svg>