<?xml version="1.0" encoding="UTF-8" standalone="no"?>
<svg
   xmlns:dc="http://purl.org/dc/elements/1.1/"
   xmlns:cc="http://creativecommons.org/ns#"
   xmlns:rdf="http://www.w3.org/1999/02/22-rdf-syntax-ns#"
   xmlns:svg="http://www.w3.org/2000/svg"
   xmlns="http://www.w3.org/2000/svg"
   height="256"
   width="256"
   viewBox="256 0 256 256"
   y="0px"
   x="0px"
   version="1.1"><metadata
     id="metadata8389"><rdf:RDF><cc:Work
         rdf:about=""><dc:format>image/svg+xml</dc:format><dc:type
           rdf:resource="http://purl.org/dc/dcmitype/StillImage" /><dc:title></dc:title></cc:Work></rdf:RDF></metadata><defs
     id="defs8387" /><style
     id="style8354"
     type="text/css">
	.st0{fill:#92D5D7;stroke:#036267;stroke-width:5;stroke-miterlimit:10;}
	.st1{fill:#036267;}
	.st2{fill:#FFFFFF;stroke:#92D5D7;stroke-width:2;stroke-miterlimit:10;}
	.st3{fill:none;stroke:#036267;stroke-width:5;stroke-miterlimit:10;}
</style><g
     transform="matrix(0.82104504,0,0,0.82104504,37.755384,-8.0895068)"
     id="g835"><circle
       class="st0"
       cx="423.70001"
       cy="193.10001"
       r="123"
       id="circle8356"
       style="fill:#92d5d7;stroke:#036267;stroke-width:5;stroke-miterlimit:10" /><g
       id="g1886"
       transform="matrix(1.9196731,0,0,2.1259787,15.172324,-25.462995)"><path
         id="path931"
         class="st1"
         d="m 212.7,137.1 c 7.5,-11.3 14.3,-17.8 21.8,-29.2 -1.7,-7.1 -8.8,-3.1 -21.6,-91.4 -14.4,88.9 -22.2,85.1 -22.9,90.7 7.4,11.7 15.4,18.4 22.7,29.9 z"
         style="fill:#036267" /><path
         id="path943"
         class="st1"
         d="m 186.1,114.3 c 5.7,7.9 16.3,18.9 22,26.8 -34.4,2.1 -41.4,9.6 -53.2,20.6 -2,-36.6 25.1,-36.4 31.2,-47.4 z"
         style="fill:#036267" /><path
         id="path944"
         class="st1"
         d="m 217.4,140.9 c 6.6,-8.6 14.9,-19 21.5,-27.6 11.2,20.8 25.8,27.1 39.4,28.2 -10.6,13.6 -37.9,12.1 -60.9,-0.6 z"
         style="fill:#036267" /></g></g><g
     transform="matrix(1.9196731,0,0,2.1259787,15.172324,-25.462995)"
     id="g1954" /></svg>