<svg xmlns="http://www.w3.org/2000/svg" viewBox="0 0 256 255.56">
  <title>watermark-chrono</title>
  <g>
    <circle cx="127.97" cy="129.58" r="124.85" style="fill: #fff"/>
    <g>
      <path d="M80.72,148.23" transform="translate(0 -1.03)" style="fill: none;stroke: #000;stroke-miterlimit: 10;stroke-width: 0.226500004529953px"/>
      <path d="M128,252.84c-52.12-1.12-99-32.62-116.61-82.48-17.25-48-2.25-103.11,36.37-136.11C87.47.13,146.34-5.12,191.71,21.51c45,26.62,68.61,80.23,58.11,131.6-12.37,58.11-63.36,98.61-121.85,99.73a1.88,1.88,0,1,0,0,3.75c52.86-1.12,101.23-32.62,120-82.86,19.49-51.37,2.62-111-40.12-145.1C166.58-4,108.09-8.11,62.73,18.51,17,45.5-7.39,99.49,2,152c11.25,60.74,64.86,103.49,126,104.61A1.88,1.88,0,1,0,128,252.84Z" transform="translate(0 -1.03)" style="fill: #273f66"/>
      <path d="M235.2,129.11C234.07,86,209.7,49.63,170.71,31.63c-1.13-.38-4.87,0-2.25,1.12C206.7,50.38,230,86.37,231.07,128.36c0,1.13,4.13,1.88,4.13.75Z" transform="translate(0 -1.03)" style="fill: #3e5b84"/>
      <path d="M95,229.22c56.24,17.25,114.36-10.12,134.6-66,.38-.75-3.74-2.62-3.74-1.87-19.88,54.36-76.49,83.23-132.36,66-2.62-.75.38,1.5,1.5,1.87Z" transform="translate(0 -1.03)" style="fill: #3e5b84"/>
      <path d="M20.73,128.74C21.86,167.36,41,200.35,73.6,221c1.88,1.13,4.5-1.12,2.25-2.62-31.49-19.5-49.87-52.12-51-89.24,0-2.62-4.13-2.62-4.13-.37Z" transform="translate(0 -1.03)" style="fill: #3e5b84"/>
      <path d="M118.22,21.88C80,26,48.48,48.13,31.23,82.62c-1.12,1.87,2.25,4.5,3.38,2.25C51.48,51.5,82.22,29.75,119.34,25.63c2.25,0,.75-3.75-1.12-3.75Z" transform="translate(0 -1.03)" style="fill: #3e5b84"/>
      <path d="M144.46,209.72c-72.73,13.13-120-61.11-87-122.6.37-.38-3.38-2.25-3.75-1.88C18.11,152,76.6,224.35,148.21,211.22c-.37.38-2.62-1.5-3.75-1.5Z" transform="translate(0 -1.03)" style="fill: #4b6e8c"/>
      <path d="M81.1,61.25C116,38.38,164,42.13,191.33,75.12c29.62,35.62,22.12,86.61-11.62,116.61-1.13.75,1.87,4.12,2.62,3.37C217.2,164.36,223.2,112.62,194,75.87c-28.12-35.62-78-42.37-115.86-18-.38.75,1.87,4.13,3,3.38Z" transform="translate(0 -1.03)" style="fill: #4b6e8c"/>
      <path d="M93.1,182.35c52.86,31.5,115.48-16.49,95.23-75.73-.37-1.13-3.75-3-3.37-1.5C203.7,161,146,211.6,93.1,180.48c-2.25-1.5-1.5.75,0,1.87Z" transform="translate(0 -1.03)" style="fill: #5584a3"/>
      <path d="M161.34,73.25C109.59,44.38,51.1,90.12,65.73,147.11c.37,2.25,4.5,2.62,3.75,0-13.88-54,40.86-98.23,90.73-70.49,2.63,1.13,3.38-2.25,1.13-3.37Z" transform="translate(0 -1.03)" style="fill: #5584a3"/>
      <path d="M129.09,169.23C84.47,170.36,74,111.49,110.34,92.74c42.75-22.12,74.62,33.37,45,65.24-.75.75,2.62,3.38,3.37,2.25,33-35.62-7.87-93-51.74-70.11-42.37,22.12-19.87,83.23,24.37,82.11,1.88-.37-1.12-3-2.25-3Z" transform="translate(0 -1.03)" style="fill: #68a5ba"/>
      <path d="M149,128.74a21,21,0,1,0-21,21A21,21,0,0,0,149,128.74Z" transform="translate(0 -1.03)" style="fill: #80d0de"/>
      <path d="M179,89.37a3,3,0,1,1-3-3A3,3,0,0,1,179,89.37Z" transform="translate(0 -1.03)" style="fill: #80d0de"/>
      <path d="M169.58,203.35a3,3,0,1,1-3-3A3,3,0,0,1,169.58,203.35Z" transform="translate(0 -1.03)" style="fill: #80d0de"/>
      <path d="M30.11,105.87a3.75,3.75,0,1,1-3.75-3.75A3.54,3.54,0,0,1,30.11,105.87Z" transform="translate(0 -1.03)" style="fill: #80d0de"/>
      <path d="M148.21,25.63a3,3,0,1,1-3-3C146.71,22.26,148.21,23.75,148.21,25.63Z" transform="translate(0 -1.03)" style="fill: #80d0de"/>
    </g>
  </g>
</svg>
