<svg xmlns="http://www.w3.org/2000/svg" viewBox="0 0 255.56 255.56">
  <title>watermark-lh</title>
  <g>
    <circle cx="127.78" cy="127.78" r="127.78" style="fill: #fff"/>
    <g>
      <path d="M35.19,110c-1.86.37-2.6.37-2.23.37-.74,0-1.11.37-1.48.37s-.74,0-.74.37a.37.37,0,0,1-.37.38H28.89a2.86,2.86,0,0,1-1.11.37c-.37,0-.37,0-.37.37s-.37.37-1.11.74c-.37,0-.37,0-.37-.37a3.39,3.39,0,0,1,.37-1.86q.56-1.11,1.11-1.11a1.29,1.29,0,0,1,.74-.37s.37-.37,0-.37c-.37-.74-.37-2.22-.74-4.07-.37-1.48-.37-4.08-.74-7.41v-23a1.36,1.36,0,0,0-.37-1.11c0-.37,0-.37-.37-.37a1.33,1.33,0,0,1-.37-.75c0-.37,0-.74.37-.74s.37-.37.74-.37.37,0,.74-.37h1.48a1.36,1.36,0,0,1,1.11.37c.37.37.74.37,1.85.74a1.29,1.29,0,0,1,.74.37,1.28,1.28,0,0,0,.74.38c.37,0,.37.37.75.74.37.74.74,1.11.74,1.48A11.93,11.93,0,0,0,35.56,77h0v4.07h0l-.74,2.23v3.33a7.22,7.22,0,0,1-.37,2.59h0a2.77,2.77,0,0,0-.37,1.85v13.34h0v2.22c0,.37,0,.37.37.37a31,31,0,0,1,4.44-.37c1.11,0,2.59-.37,4.07-.37a6.18,6.18,0,0,0,1.86-.74c.37,0,.37-.37.74-.74h0l.37-.37.37.37c0,.37.37.74.37,1.11v.74a2.35,2.35,0,0,1-2.22,1.85,2.81,2.81,0,0,1-1.49.37H40.37C36.67,109.63,35.56,110,35.19,110Z" style="fill: #010101"/>
      <path d="M67.78,109.26a3.36,3.36,0,0,0,2.59-1.11,9.21,9.21,0,0,0,1.85-2.59c.75-1.11,2.6-6.3,5.56-15.93.37-1.11.74-1.48,1.11-.74a2.8,2.8,0,0,1,.37,1.48c-2.59,10-4.81,15.93-6.67,18.52a6.76,6.76,0,0,1-3,2.22,10.7,10.7,0,0,1-3.7.75,4.53,4.53,0,0,1-3.34-1.12A8.84,8.84,0,0,1,60,105.93c-.37-1.11-.37-2.22-.74-3.33a12.75,12.75,0,0,1-.37-4.08V95.19a.36.36,0,0,0-.37.37c0,.37-.37.74-.74,1.48A6.25,6.25,0,0,0,57,98.89a2.8,2.8,0,0,0-.37,1.48v1.49c0,.37-.37.37-.37.74a1.29,1.29,0,0,1-.37.74v.37a1.36,1.36,0,0,1-.37,1.11v.37a6.39,6.39,0,0,1-1.11,1.48c-.74.74-1.49,1.11-1.86,1.48h-.37a.36.36,0,0,0-.37.37,2.8,2.8,0,0,1-1.48.37h-.74a4.49,4.49,0,0,1-1.85-.37c-.37-.37-1.11-.74-1.11-1.48a34.93,34.93,0,0,1-1.11-3.33,20.18,20.18,0,0,1,0-6.67c.37-2.22.74-3.7,1.11-5.19a9.27,9.27,0,0,1,1.48-2.59l.37-.37a4,4,0,0,1,1.85-.37h3.71a19.92,19.92,0,0,1,3,.37c.37,0,.37.37.74.37.37.37.74.37,1.48.74,0,0,.37.37,0,.37a.8.8,0,0,1-.74.74,2.22,2.22,0,0,1-1.48.37,2.22,2.22,0,0,0-1.48.37,8.42,8.42,0,0,0-1.11,1.86,2.86,2.86,0,0,0-.37,1.11A5.28,5.28,0,0,0,53.33,97c0,.74,0,1.11-.37,1.11v5.19h.37c.38-.37.38-.74.75-1.11.74-1.86,1.85-3.71,3.33-6.67l2.22-3.33.37-.37c.74-.38,1.48-.38,1.11-.38h.37a8.89,8.89,0,0,1,3.34.75c.37,0,.37.37.74.37.37.37.37.37.37.74v.74a6.51,6.51,0,0,0,.37,2.22V103a2.8,2.8,0,0,0,.37,1.48v1.48a2.8,2.8,0,0,0,.37,1.48c0,.74.37,1.11.37,1.48A1,1,0,0,0,68.52,110C67,109.26,67.41,109.26,67.78,109.26Z" style="fill: #010101"/>
      <path d="M81.85,94.82c.37-.37.37-.74.75-1.11l1.11-2.23a8.09,8.09,0,0,1,1.11-1.85,1.29,1.29,0,0,0,.37-.74c.37-.37.37-.37.37-.74L86.67,87l.74-.74a5.69,5.69,0,0,1,2.22-1.48,2.77,2.77,0,0,1,1.85-.37h.37a1.38,1.38,0,0,1,1.12.37.8.8,0,0,1,.74.74c0,.37.37.37,0,.37a5.26,5.26,0,0,1,.74,2.22v3.33a23.46,23.46,0,0,1-.74,3.34c-.74,2.59-1.11,4.07-1.11,4.07a1.15,1.15,0,0,1-.37.74,1.28,1.28,0,0,1-.38.74h0a.36.36,0,0,1-.37.37,5,5,0,0,0-.37,1.86v2.59c0,.74.37.74,1.12.74a.36.36,0,0,0,.37-.37l1.11-1.11A5.11,5.11,0,0,0,94.82,103c.37-.74,1.11-1.49,1.85-3,0-.37.37-.74.74-1.11s.74-.74.74-1.11c0,0,.74-1.11,1.85-3a22.28,22.28,0,0,1,1.86-3,.37.37,0,0,1,.37.38l.37.37c0,1.48-2.23,5.18-5.93,10.74-.37.37-.74,1.11-1.85,2.59A6.5,6.5,0,0,1,93,107.41c-.74.37-1.12.74-1.49.74-.74.37-1.11,0-1.85,0a4.93,4.93,0,0,1-2.22-1.85,7.44,7.44,0,0,1-1.48-3,12.24,12.24,0,0,1,0-5.19c.37-1.48.37-3,.74-4.07a17.1,17.1,0,0,0,1.11-3.34s.37-1.11,1.48-3.7c0-.37.37-.74.37-1.11v-.37c0-.37,0-.37-.37,0-.37,0-.74,0-.74.37a9.81,9.81,0,0,0-2.22,1.85,5.11,5.11,0,0,0-1.11,1.48c-.74,1.11-1.11,1.48-1.11,1.85-.74,1.49-1.11,3-1.48,3.71a38.22,38.22,0,0,1-1.86,4.07v.37a15.56,15.56,0,0,0-.74,1.85c-.37,1.12-.74,1.49-.74,1.86v.37c-.37,0-.37.37-.37.74l-.37.74h0a.36.36,0,0,0-.37.37,4.58,4.58,0,0,1-1.11.74H76.3c-.37,0-.37-.37-.74-.37-.37-.37-.37-.74-.74-1.11a8.7,8.7,0,0,1-.74-3c0-1.11-.37-2.22-.37-3.33V88.52A3.83,3.83,0,0,1,74.08,87V85.93a4.69,4.69,0,0,1,.37-2.22V81.85c0-.37.37-.37.74-.37H77c.37,0,.37.37.74.37a3.76,3.76,0,0,1,1.48,1.86,1.36,1.36,0,0,1,.37,1.11V93c2.22,1.11,2.22,1.48,2.22,1.85Z" style="fill: #010101"/>
      <path d="M113.71,82.6c.37,0,.37-.38.74-.38h0a2.25,2.25,0,0,1,2.22.38c.37.37.74.74,1.11.74.37.37.74.37,1.11.74a1.29,1.29,0,0,0,.74.37,5.11,5.11,0,0,1,1.11,1.48,1.13,1.13,0,0,1,0,1.48h0v3h0v5.19h0v4.81h0c3.71-4.07,6.67-7,8.15-10,.37-.37.37-.37.74-.37s.37.37.37.74a30.32,30.32,0,0,1-5.18,6.3l-4.45,5.19v20a9.76,9.76,0,0,0-.37,2.59,22.34,22.34,0,0,1-1.85,5.92,3.55,3.55,0,0,1-3.33,2.23,4.78,4.78,0,0,1-3.71-1.48,8.15,8.15,0,0,1-1.48-1.86l-1.11-2.22v-2.59a5.49,5.49,0,0,1,.37-2.59,17.56,17.56,0,0,1,1.85-5.19,34.3,34.3,0,0,1,2.6-4.81c.37-.74,1.11-1.49,1.85-2.6v-13l-.37.37a38.76,38.76,0,0,1-3,4.07l-1.12,1.12h0c.37,0,0,0-1.11.74h-1.11a.36.36,0,0,0-.37.37.69.69,0,0,1-1.11,0h-1.48c-.37,0-.74-.37-1.11-.74A6.27,6.27,0,0,1,103,97.78a24.5,24.5,0,0,1,.37-5.55,20.75,20.75,0,0,1,1.48-4.45,15.94,15.94,0,0,1,2.59-3.7A3.56,3.56,0,0,1,111.12,83c.37,0,.37,0,.74.37a6.25,6.25,0,0,1,1.85.74,1.29,1.29,0,0,0,.74.37c.37.37.37.37.74.37h.37l-.37-.37C113.34,83.34,113.34,83,113.71,82.6Zm-5.93,16.29a8.06,8.06,0,0,0,1.85-3,5.72,5.72,0,0,1,1.11-2.22c.37-.74.75-1.48,1.12-2.23a16.79,16.79,0,0,1,1.85-3.33V85.93l-.37.37c-.74.37-1.11.37-1.11.74a20.93,20.93,0,0,0-1.86,1.48l-.74.74a8.09,8.09,0,0,0-1.11,1.85,5.3,5.3,0,0,0-.74,2.23,25.49,25.49,0,0,1-.37,2.59V100C107.41,99.26,107.78,99.26,107.78,98.89Zm4.82,13.34a18.22,18.22,0,0,0-3,7.4,32.3,32.3,0,0,0-.74,3.71V127a1.15,1.15,0,0,0,.37.74v1.11c.74,1.11,1.11,1.48,1.11,1.86l.37.37c.37.37.75.37.75-.37v-.38a1.62,1.62,0,0,1,.37-1.11,23.59,23.59,0,0,1,.74-3.33v-3a42.57,42.57,0,0,0,.37-5.56v-6.3l-.37.38Z" style="fill: #010101"/>
      <path d="M134.45,99.26c0-.37.37-.37.37-.74a1.62,1.62,0,0,0,.37-1.11,1.29,1.29,0,0,0,.37-.74c0-.37.37-.37.37-.74a1.29,1.29,0,0,0,.37-.74,1.29,1.29,0,0,1,.37-.74,17.73,17.73,0,0,0,1.11-2.6,4,4,0,0,1,.74-1.48c.37-.37.74-1.48,1.48-2.59a21.48,21.48,0,0,1,1.49-2.22l.37-.37a.36.36,0,0,1,.37-.37l.74-.74h.37a1.15,1.15,0,0,1,.74-.37h1.48a.36.36,0,0,1,.37.37,7.74,7.74,0,0,1,2.22,1.48c.37.37.37.74.74.74.37.37.37,1.11.74,1.85a1.62,1.62,0,0,0,.37,1.11v9.63h0v2.59a3.91,3.91,0,0,0-.37,1.49,2.8,2.8,0,0,0,.37,1.48v.74c0,.37.37.37.74,0,.38,0,.38-.37.75-.74a61.43,61.43,0,0,0,4.07-7c.74-1.11,1.48-2.59,2.22-3.7,1.48-2.6,2.22-4.08,2.22-4.08.37-.37.74-.37,1.49,0a13,13,0,0,1-2.23,5.19c0,.37-1.11,1.85-3,4.81s-2.59,4.82-3,4.82a22.15,22.15,0,0,1-2.22,2.59c-1.12.74-1.49,1.11-1.49.74A2.29,2.29,0,0,1,147,107a6.29,6.29,0,0,1-2.22-3.7,18.83,18.83,0,0,1-.74-3.34c0-.74-.37-2.22-.37-3.7V87.41a1.29,1.29,0,0,1-.74.37c-.37.37-.74,1.11-1.48,1.85a1.28,1.28,0,0,0-.38.74c-.37.74-.74,1.11-.74,1.48a1.33,1.33,0,0,0-.37.75c0,.37-.37.37-.37.74a29456863985447.5,29456863985447.5,0,0,0-.74.74,1.15,1.15,0,0,1-.37.74c0,.37-.37.74-.74,1.48s-.37,1.11-.74,1.48a6.25,6.25,0,0,1-.74,1.85,1.36,1.36,0,0,0-.37,1.11l-.37.37a1.16,1.16,0,0,0-.37.75c0,.37-.37.37-.37.74-.37,0-.37.37-.74.37a5.11,5.11,0,0,1-1.48,1.11h-1.11a9.63,9.63,0,0,1-2.23-1.85,3.16,3.16,0,0,1-.74-2.23,13.3,13.3,0,0,1-.74-4.07,17,17,0,0,1-.37-3.7,25.4,25.4,0,0,1-.37-4.45V85.19a5.83,5.83,0,0,1-.37-1.48v-.37h.74c.37,0,.74-.37,1.11,0h1.11a2.81,2.81,0,0,0,1.49.37c.37,0,.37,0,.37.37h.37a5.11,5.11,0,0,0,1.48,1.11A8.09,8.09,0,0,1,134.45,87a15.08,15.08,0,0,1,.74,2.59v4.08c0,.74-.37,1.85-.37,2.22V97a.69.69,0,0,0,0,1.11v.74c-.74-.37-.74,0-.37.37a.36.36,0,0,0-.37.37V100C134.45,100,134.45,99.63,134.45,99.26Z" style="fill: #010101"/>
      <path d="M180.38,109.26a3.36,3.36,0,0,0,2.59-1.11,9.21,9.21,0,0,0,1.85-2.59c.74-1.11,2.59-6.3,5.56-15.93.37-1.11.74-1.48,1.11-.74a2.8,2.8,0,0,1,.37,1.48c-2.59,10-4.82,15.93-6.67,18.52a6.76,6.76,0,0,1-3,2.22,10.71,10.71,0,0,1-3.71.75,4.48,4.48,0,0,1-3.33-1.12,8.84,8.84,0,0,1-2.59-4.81c-.37-1.11-.37-2.22-.74-3.33a12.75,12.75,0,0,1-.37-4.08V95.19a.36.36,0,0,0-.37.37c0,.37-.37.74-.74,1.48a6.25,6.25,0,0,0-.74,1.85,2.74,2.74,0,0,0-.38,1.48v1.49c0,.37-.37.37-.37.74a1.29,1.29,0,0,1-.37.74v.37a1.36,1.36,0,0,1-.37,1.11v.37a6.39,6.39,0,0,1-1.11,1.48c-.74.74-1.48,1.11-1.85,1.48h-.37a.36.36,0,0,0-.37.37,2.8,2.8,0,0,1-1.48.37h-.74a4.49,4.49,0,0,1-1.85-.37c-.37-.37-1.11-.74-1.11-1.48a32.13,32.13,0,0,1-1.12-3.33,20.18,20.18,0,0,1,0-6.67c.37-2.22.74-3.7,1.12-5.19a9.27,9.27,0,0,1,1.48-2.59l.37-.37a4,4,0,0,1,1.85-.37h3.7a20.13,20.13,0,0,1,3,.37c.37,0,.37.37.74.37.37.37.74.37,1.48.74,0,0,.37.37,0,.37a.8.8,0,0,1-.74.74,2.22,2.22,0,0,1-1.48.37,2.25,2.25,0,0,0-1.49.37A8.42,8.42,0,0,0,167,93.71a2.86,2.86,0,0,0-.37,1.11,5.26,5.26,0,0,0-.74,2.22c0,.74,0,1.11-.37,1.11v5.19h.37c.37-.37.37-.74.74-1.11.74-1.86,1.85-3.71,3.34-6.67l2.22-3.33.37-.37c.74-.38,1.48-.38,1.11-.38h.37a8.83,8.83,0,0,1,3.33.75c.37,0,.37.37.74.37.37.37.37.37.37.74v.74a6.35,6.35,0,0,0,.38,2.22V103a2.8,2.8,0,0,0,.37,1.48v1.48a2.8,2.8,0,0,0,.37,1.48c0,.74.37,1.11.37,1.48a1,1,0,0,0,1.11,1.11C180,109.26,180,109.26,180.38,109.26Z" style="fill: #010101"/>
      <path d="M200.75,82.6c.37,0,.37-.38.74-.38h0a2.25,2.25,0,0,1,2.22.38c.37.37.74.74,1.11.74.37.37.74.37,1.11.74a1.29,1.29,0,0,0,.74.37,5.11,5.11,0,0,1,1.11,1.48,1.13,1.13,0,0,1,0,1.48h0v3h0v5.19h0v4.81h0c3.71-4.07,6.67-7,8.15-10,.37-.37.37-.37.74-.37s.37.37.37.74a30.32,30.32,0,0,1-5.18,6.3l-4.45,5.19v20a9.76,9.76,0,0,0-.37,2.59,22.34,22.34,0,0,1-1.85,5.92,3.55,3.55,0,0,1-3.33,2.23,4.78,4.78,0,0,1-3.71-1.48,8.15,8.15,0,0,1-1.48-1.86l-1.11-2.22v-2.59a5.49,5.49,0,0,1,.37-2.59,17.56,17.56,0,0,1,1.85-5.19,33.22,33.22,0,0,1,2.6-4.81c.37-.74,1.11-1.49,1.85-2.6v-13l-.37.37a38.76,38.76,0,0,1-3,4.07l-1.12,1.12h0c.37,0,0,0-1.11.74h-1.11a.36.36,0,0,0-.37.37.69.69,0,0,1-1.11,0H192.6c-.37,0-.74-.37-1.11-.74A6.27,6.27,0,0,1,190,97.78a24.5,24.5,0,0,1,.37-5.55,20.75,20.75,0,0,1,1.48-4.45,15.94,15.94,0,0,1,2.59-3.7A3.56,3.56,0,0,1,198.16,83c.37,0,.37,0,.74.37a6.25,6.25,0,0,1,1.85.74,1.29,1.29,0,0,0,.74.37c.37.37.37.37.74.37h.37l-.37-.37C200.38,83.34,200.38,83,200.75,82.6Zm-5.93,16.29a8.06,8.06,0,0,0,1.85-3,5.72,5.72,0,0,1,1.11-2.22l1.12-2.23a16.79,16.79,0,0,1,1.85-3.33V85.93l-.37.37c-.74.37-1.11.37-1.11.74a20.93,20.93,0,0,0-1.86,1.48l-.74.74a8.09,8.09,0,0,0-1.11,1.85,5.3,5.3,0,0,0-.74,2.23,25.49,25.49,0,0,1-.37,2.59V100C194.45,99.26,194.82,99.26,194.82,98.89Zm4.82,13.34a18.22,18.22,0,0,0-3,7.4,32.3,32.3,0,0,0-.74,3.71V127a1.15,1.15,0,0,0,.37.74v1.11c.74,1.11,1.11,1.48,1.11,1.86l.37.37c.37.37.74.37.74-.37v-.38a1.6,1.6,0,0,1,.38-1.11,23.59,23.59,0,0,1,.74-3.33v-3a42.57,42.57,0,0,0,.37-5.56v-6.3l-.37.38Z" style="fill: #010101"/>
      <path d="M213,95.19c.37-1.85.74-3,.74-3.34a12.32,12.32,0,0,1,1.11-2.22l.37-.37c.37-.74.74-1.11,1.48-1.11a11,11,0,0,1,4.82-.74,1.36,1.36,0,0,1,1.11.37c.37.37.74.37.74.74s0,.37.37.37.74.37,1.11.74l.37.37c.37,0,.37.37.37.74V92.6a3.69,3.69,0,0,1-.37,1.48,5.26,5.26,0,0,1-.74,2.22c0-.37,0,0-.37.74,0,.37-.37.74-.37,1.11s-.37.74-.37,1.11l-.74,1.48a9.76,9.76,0,0,0-1.11,2.6v.37a4.2,4.2,0,0,0,1.11,3,5.11,5.11,0,0,0,1.11,1.48l.37.37a.69.69,0,0,0,1.11,0c1.48-1.48,3.34-4.81,5.56-10.37L233,92.6c.74-1.86,1.11-2.6,1.11-2.6,0-.37.37-.37.37-.74.74,0,1.11,0,.74.37a66.32,66.32,0,0,1-9.26,20.74l-1.11,1.12c-.37.37-.74.37-1.48.74h-2.59a6.77,6.77,0,0,1-2.6-1.86,17.39,17.39,0,0,1-3.33-4.44,23,23,0,0,1-1.11-3.7c0-.75-.37-2.23-.37-4.45A3.62,3.62,0,0,1,213,95.19Zm8.89,3c.37-.37.37-1.48.74-2.59a6.21,6.21,0,0,0,0-3.71v-.74c-.37.37-.74,1.12-1.11,1.49a8.43,8.43,0,0,0-1.11,4.07,6.27,6.27,0,0,0,0,3.7v1.11h0C220.75,100,221.49,99.26,221.86,98.15Z" style="fill: #010101"/>
      <path d="M77,144.82a2.83,2.83,0,0,0-.74,1.85,20.06,20.06,0,0,1-.37,4.08v4.44c0,.74,0,1.11-.37,1.11v1.48c0,.74,0,1.11-.37,1.48h0v10.38a56.46,56.46,0,0,0,.37,6.66v1.11a30.91,30.91,0,0,0,.37,4.45v4.07a3.34,3.34,0,0,0,.37,1.85v1.49a.36.36,0,0,1-.37.37.36.36,0,0,0-.37.37.36.36,0,0,1-.37.37,6.25,6.25,0,0,0-.74,1.85c0,.37-.37.74-.74.37a1.29,1.29,0,0,1-.74-.37h-.75a12.77,12.77,0,0,1-4.81-1.11,3.69,3.69,0,0,1-1.48-1.85,46.54,46.54,0,0,1-1.48-5.93,62.83,62.83,0,0,0-1.11-7.78,55.86,55.86,0,0,1-.38-8.15V156.3H61.85a32.81,32.81,0,0,1-4.81.37,19.28,19.28,0,0,0-4.08.74c-.37,0-.37.37-1.11.37-.37,0-.74.37-1.11.37,0,0-1.48.37-4.81,1.11a2.36,2.36,0,0,0-1.85,2.23v5.92c0,2.6,0,3.71-.37,4.08v12.59c0,1.85,0,2.59.37,1.85,0-.37,0,0-.37,1.11a9.57,9.57,0,0,0-.38,2.6V190a.36.36,0,0,0-.37.37l-.37.37c-.37,0-.74.37-1.11.74s-.74.74-1.11.74v.37a1.62,1.62,0,0,0-.37,1.11c0,.37-.37.74-1.11.37s-1.11-.37-1.48-.74a3.66,3.66,0,0,1-2.59-2.59c-.74-1.85-1.49-3-1.49-3.71a12.77,12.77,0,0,1-1.11-4.81,22.12,22.12,0,0,0-.37-4.08,42.36,42.36,0,0,1-.37-5.55v-2.22a13.06,13.06,0,0,0-.37-2.23V162.6c0-.37,0-.37-.37-.37a5.49,5.49,0,0,1-2.59-.37l-.74-.37a4.82,4.82,0,0,1-4.08-3.34,2.81,2.81,0,0,0-.74-1.48.92.92,0,0,1,.37-1.48,1.67,1.67,0,0,1,1.86,0,1.36,1.36,0,0,0,1.11.37,41.86,41.86,0,0,1,4.44-.74c.37,0,.37-.37.37-.74V136.67a65.63,65.63,0,0,0-.74-7,5.08,5.08,0,0,0-1.85-3,2.83,2.83,0,0,1-.74-1.85,1.31,1.31,0,0,1,1.48-1.48,6.51,6.51,0,0,0,2.22-.37c2.22-.37,4.08-.37,5.19.74.37.37.74.37,1.48.74a34.23,34.23,0,0,1,3.7,1.85,5.08,5.08,0,0,1,1.85,3,6.59,6.59,0,0,0,.37,2.23,6.35,6.35,0,0,1,.38,2.22,12.74,12.74,0,0,0,.37,3.33v3a5.52,5.52,0,0,1-.37,2.23v2.22a8.15,8.15,0,0,1,.37,3v3.71c0,.37,0,.74.74.74s1.85-.37,3.33-.37a16.27,16.27,0,0,1,3.33-.37,97.88,97.88,0,0,1,10.37-.74.81.81,0,0,0,.74-.75c0-3.7.38-7,.38-10.37,0-1.48.37-2.59.37-3.7a20.45,20.45,0,0,0,.37-3.33v-1.86a24.56,24.56,0,0,0,.37-4.81c0-.37,0-.74.74-1.11l.74-.74c.37,0,.37-.37.74-.37a1.15,1.15,0,0,1,.74-.37c1.11-.37,2.22-.37,2.59,0a2.22,2.22,0,0,1,1.48.37c.37,0,.37,0,.74.37,1.49,1.11,2.23,1.48,2.6,1.85a13,13,0,0,0,3,1.85c1.11.74,1.85,1.48,1.85,2.59,0,.37,0,.37.37.75s.37.37.37.74c0,2.22,0,3.33-.37,4.07a21.3,21.3,0,0,0-.74,3.7,47.5,47.5,0,0,1-1.11,5.56Q77.6,143.71,77,144.82Z" style="fill: #010101"/>
      <path d="M80,163.71c.74-3.33,1.11-5.19,1.48-5.56a16.16,16.16,0,0,1,2.23-3.7.36.36,0,0,0,.37-.37,6.28,6.28,0,0,1,2.22-2.22,16.13,16.13,0,0,1,8.15-1.11,5.26,5.26,0,0,1,2.22.74c.74.37,1.11.74,1.11,1.48,0,.37.37.37.74.37.74,0,1.11.37,1.85,1.11l.37.37c.37,0,.37.74.74,1.48a4.64,4.64,0,0,1-.37,3.33,27.87,27.87,0,0,0-.74,3,30,30,0,0,0-1.11,4.07c0-.37,0,0-.74,1.48-.37.37-.37,1.11-.74,1.86-.37,1.11-.37,1.48-.74,1.85,0,.37-.74,1.11-1.48,3l-2.22,4.45V180a11,11,0,0,0,1.85,5.55c1.11,1.48,1.48,2.22,1.85,2.59l.37.37c.74.75,1.48.75,1.85,0,2.22-2.59,5.56-8.51,9.63-18.14,1.48-3,2.59-6.3,4.08-9.63,1.11-3.34,1.85-4.82,1.85-4.45a4.58,4.58,0,0,1,.74-1.11c1.11,0,1.48.37,1.48.74-3.7,14.08-8.89,25.93-15.93,35.93l-2.22,1.85a8.84,8.84,0,0,1-2.59,1.11,5,5,0,0,0-1.85.37c-.74,0-1.85,0-2.23-.37a13.31,13.31,0,0,1-4.44-3,30,30,0,0,1-5.56-7.78,21.3,21.3,0,0,1-1.85-6.3c-.37-1.11-.37-3.7-.37-7.4Zm15.19,5.18a31.71,31.71,0,0,0,1.11-4.81c.37-2.59.74-4.82.37-6.67,0-.74,0-1.11-.37-1.11a5.67,5.67,0,0,0-1.85,2.59,26,26,0,0,0-2.22,7,17.88,17.88,0,0,0,0,6.3v2.22h.37A18.68,18.68,0,0,0,95.19,168.89Z" style="fill: #010101"/>
      <path d="M113,177.41q.56-2.22,2.22-7.77c0-.38.74-1.49,1.85-4.08l.74-1.85c.37-.74,0-1.11-.37-1.48a11.9,11.9,0,0,0-2.59-1.48,7.93,7.93,0,0,1-2.59-1.49,11.15,11.15,0,0,1-3-3,11.94,11.94,0,0,1-2.22-6.67,12.16,12.16,0,0,1,1.48-6.29,14.53,14.53,0,0,1,3-3.71,4.2,4.2,0,0,1,3-1.11H117a6.25,6.25,0,0,1,1.85.74c.37,0,.37.37.74.74a12.85,12.85,0,0,1,.37,3.34c0,.37-.37.74-.37,1.48a2.8,2.8,0,0,0-.37,1.48,6.25,6.25,0,0,1-.74,1.85,6.25,6.25,0,0,0-.74,1.85,2.85,2.85,0,0,0-.37,1.49q-1.11,2.77,2.22,4.44c2.23,1.11,3.71,1.48,4.08,1.85,2.22,1.48,3.33,2.23,3.33,1.85a5,5,0,0,1,1.85,2.23,21.91,21.91,0,0,1,1.48,2.22,5.65,5.65,0,0,1,1.12,2.22,1.13,1.13,0,0,1,0,1.48c-.37.37-.37.74-.37,1.48,0,.38-.37,1.12-.37,1.49a13.61,13.61,0,0,1-1.86,3.33c-.37.37-.37.37-.37.74,0-.37-.74,1.11-2.59,3.33a16.84,16.84,0,0,0-3,6.67v1.48a5.26,5.26,0,0,0,.74,2.22c.74.75,1.85.75,4.44-.37a40.59,40.59,0,0,0,4.08-2.22,23.6,23.6,0,0,0,6.66-7c.37-.74,1.49-2.59,3.34-5.55,1.48-2.22,2.22-3.33,2.22-3.71.74-.37,1.11-.74,1.85-.37.37.37.74.37.74.75q0,1.67-2.22,5.55c-4.44,7.78-9.26,12.59-14.44,15.19-2.23,1.11-3.71,1.48-4.45,1.85a7.22,7.22,0,0,1-2.59.37,8,8,0,0,1-7.78-5.19,14.1,14.1,0,0,1-1.48-6.29C112.6,179.64,112.6,178.52,113,177.41Zm1.48-29.26c.37,0,1.11-1.85,1.85-5.18,0-.37,0-.74-.37-.74C114.82,141.86,114.08,144.08,114.45,148.15Z" style="fill: #010101"/>
      <path d="M155.93,145.93a3.83,3.83,0,0,0,1.48-.37h2.22c2.23.74,3.71,3.33,4.45,7,.37,1.11.37,1.85.74,1.85,1.11.74,3.33.74,6.67.74a27.81,27.81,0,0,0,5.55-1.11c1.11-.74,1.48-.37,1.48.74a1.69,1.69,0,0,1-1.48,1.85,51.58,51.58,0,0,1-8.89,1.11c-1.85,0-2.59-.37-2.22-.37-.37,0-.37.37-.74,1.11V160l-.37,2.22a4,4,0,0,1-.37,1.85,16,16,0,0,1-.37,1.85,13.08,13.08,0,0,0-.37,2.22,50.52,50.52,0,0,1-2.22,5.93l-2.22,4.44a24,24,0,0,1-3.71,4.82l-1.48,1.48a15,15,0,0,1-3.33,1.85,9,9,0,0,1-8.15-.74,18.6,18.6,0,0,1-5.56-5.18,15.06,15.06,0,0,1-1.85-3.34l-1.11-3.33c-.37-3-.74-4.44-.74-4.07a15.94,15.94,0,0,1,0-5.93,39.11,39.11,0,0,1,2.22-8.89,18.92,18.92,0,0,1,3.33-5.93c1.11-1.11,1.86-2.59,3.34-3.33-.37.37.37-.37,2.22-1.48a6,6,0,0,1,2.22-1.11,7.4,7.4,0,0,1,3.34-.74,11.76,11.76,0,0,1,5.18.74l.37.37c.37.37.74.74.74,1.11a1,1,0,0,1-1.11,1.11,1.29,1.29,0,0,0-.74.37A5.83,5.83,0,0,1,155.93,145.93Zm-2.59.37a7.75,7.75,0,0,0-3.71,2.22l-1.11,1.11c-.37.37-.74.75-.74,1.12a27.25,27.25,0,0,0-1.85,2.22,2.86,2.86,0,0,0-.37,1.11,17.2,17.2,0,0,0-1.11,3.33c0,1.11-.37,2.6-.74,5.56v3a6.51,6.51,0,0,0,.37,2.22,6.56,6.56,0,0,1,.37,2.23,6.86,6.86,0,0,0,.74,2.59,11.37,11.37,0,0,0,3.7,5.55c.74.37,1.11.75,1.86,1.12-.37,0,0,0,1.48.37a4,4,0,0,0,1.85-.37,6.55,6.55,0,0,0,1.85-1.49,24.67,24.67,0,0,0,3.33-7.77c.37-2.23.75-4.82,1.12-8.52V156.3a1.3,1.3,0,0,0-.75-.37,7.85,7.85,0,0,1-6.66-6.67v-1.48A2.22,2.22,0,0,1,153.34,146.3Zm5.18,1.85a4,4,0,0,0-1.85-1.11h-1.48c-.74.37-.74,1.11-.37,2.22a3.4,3.4,0,0,0,1.48,2.23,4.51,4.51,0,0,0,3.71,1.85c.37,0,0-.74-.38-3a2.83,2.83,0,0,0-.74-1.86A.36.36,0,0,0,158.52,148.15Z" style="fill: #010101"/>
      <path d="M173,163.71c.74-3.33,1.11-5.19,1.48-5.56a16.18,16.18,0,0,1,2.22-3.7.36.36,0,0,0,.37-.37,6.28,6.28,0,0,1,2.22-2.22,16.16,16.16,0,0,1,8.15-1.11,5.3,5.3,0,0,1,2.23.74c.74.37,1.11.74,1.11,1.48,0,.37.37.37.74.37.74,0,1.11.37,1.85,1.11l.37.37c.37,0,.37.74.74,1.48a4.64,4.64,0,0,1-.37,3.33,27.87,27.87,0,0,0-.74,3,30,30,0,0,0-1.11,4.07c0-.37,0,0-.74,1.48-.37.37-.37,1.11-.74,1.86-.37,1.11-.37,1.48-.74,1.85,0,.37-.74,1.11-1.49,3l-2.22,4.45V180a11,11,0,0,0,1.85,5.55c1.12,1.48,1.49,2.22,1.86,2.59l.37.37c.74.75,1.48.75,1.85,0,2.22-2.59,5.55-8.51,9.63-18.14,1.48-3,2.59-6.3,4.07-9.63,1.11-3.34,1.85-4.82,1.85-4.45a4.58,4.58,0,0,1,.74-1.11c1.12,0,1.49.37,1.49.74-3.71,14.08-8.89,25.93-15.93,35.93l-2.22,1.85a8.84,8.84,0,0,1-2.59,1.11,5,5,0,0,0-1.86.37c-.74,0-1.85,0-2.22-.37a13.31,13.31,0,0,1-4.44-3,29.49,29.49,0,0,1-5.56-7.78,21.3,21.3,0,0,1-1.85-6.3c-.37-1.11-.37-3.7-.37-7.4Zm15.55,5.18a30.31,30.31,0,0,0,1.12-4.81c.37-2.59.74-4.82.37-6.67,0-.74,0-1.11-.37-1.11a5.62,5.62,0,0,0-1.86,2.59,26,26,0,0,0-2.22,7,17.88,17.88,0,0,0,0,6.3v2.22h.37A37,37,0,0,0,188.52,168.89Z" style="fill: #010101"/>
      <path d="M217,187h0c0-.37-.37,0-.37.37a21.53,21.53,0,0,0-1.11,1.86c0,.37-.37.37-.37.74-.37.37-.37.74-.74.74,0-.37.37-.74.37-1.11a1.37,1.37,0,0,0,.37-1.12h-.37c-.74.75-1.11,1.49-1.85,1.86h0a11,11,0,0,1-1.48,1.11c-.37.37-.37.37-.74.37a2.22,2.22,0,0,0-1.48.37h-1.49a14.55,14.55,0,0,1-2.22-.74,3.4,3.4,0,0,1-1.48-2.22,12.27,12.27,0,0,1,0-5.19,24,24,0,0,1,2.22-7.78,34.13,34.13,0,0,0,1.85-3,1.36,1.36,0,0,0,.37-1.11,23.58,23.58,0,0,0-2.22-6.67,15.28,15.28,0,0,1-1.48-3.33,30.71,30.71,0,0,1-2.22-7,16,16,0,0,1,1.48-8.52c1.11-1.48,1.85-3,2.59-3.33s1.11-.74,1.86-.74c.37,0,.74-.37,1.48-.37a3.73,3.73,0,0,1,3.33.37,2.83,2.83,0,0,1,1.85.74,7.74,7.74,0,0,1,2.22,1.48c.37.37.37.74.75.74,0,.37.37.74.37,1.11a1.36,1.36,0,0,1,.37,1.11,3.15,3.15,0,0,1,0,2.6,12.46,12.46,0,0,1-1.12,3l-.37.37-.37.37a6.39,6.39,0,0,0-1.11,1.48c-.74.37-1.11.74-1.48.74-.74-.37-.74-.74-.74-1.11a25.49,25.49,0,0,0,1.11-3,24.36,24.36,0,0,0,.74-3.34v-.37c0-.37,0-.37-.37-.37-.74,0-1.11.37-1.85.74-.74.74-1.11,1.49-1.48,1.86a4.69,4.69,0,0,0-.37,2.22v1.85a2.8,2.8,0,0,0,.37,1.48,2.8,2.8,0,0,1,.37,1.48,11.18,11.18,0,0,0,3.33,5.56,8.09,8.09,0,0,1,1.11,1.85c.74.74,5.56-2.22,15.19-9.26a2,2,0,0,1,1.11,1.48c0,.37-.37.74-.74,1.11.37-.37-4.07,2.6-13.33,8.52-.37,0-.37.37-.37.74a21.85,21.85,0,0,1,1.48,3c.74,1.85,1.11,3,1.48,4.07a6.3,6.3,0,0,1-.37,2.59v.74a14.54,14.54,0,0,1-.74,2.23,2.86,2.86,0,0,0-.37,1.11c0,.37-.37.37-.37.74l-.74.74a34.52,34.52,0,0,0-1.86,3.7,6,6,0,0,0-.74,1.85C217,187.41,217,187.41,217,187Zm-7.77-10.37-.37.74c-.37.74-1.12,2.6-2.23,5.56,0,.37-.37.74-.37,1.48v1.48a3.16,3.16,0,0,0,0,2.59c0,.37,0,.75.37.37h1.11a2.37,2.37,0,0,0,1.86-1.85v-.37c0,.74,0-2.22-.37-8.52v-1.48Z" style="fill: #010101"/>
    </g>
  </g>
</svg>
