<?xml version="1.0" encoding="UTF-8" standalone="no"?>
<svg
   xmlns:dc="http://purl.org/dc/elements/1.1/"
   xmlns:cc="http://creativecommons.org/ns#"
   xmlns:rdf="http://www.w3.org/1999/02/22-rdf-syntax-ns#"
   xmlns:svg="http://www.w3.org/2000/svg"
   xmlns="http://www.w3.org/2000/svg"
   height="301"
   width="514"
   id="svg36"
   version="1.1"
   viewBox="0 0 514 301">
  <metadata
     id="metadata42">
    <rdf:RDF>
      <cc:Work
         rdf:about="">
        <dc:format>image/svg+xml</dc:format>
        <dc:type
           rdf:resource="http://purl.org/dc/dcmitype/StillImage" />
        <dc:title>Artboard 1</dc:title>
      </cc:Work>
    </rdf:RDF>
  </metadata>
  <defs
     id="defs40" />
  <title
     id="title2">Artboard 1</title>
  <g
     transform="translate(1,-106)"
     id="g32">
    <path
       id="path4"
       d="m 30.32,201.12 q -6.09,0.69 -5.42,0.56 a 22.94,22.94 0 0 1 -3.11,0.55 c -0.91,0.1 -1.4,0.42 -1.49,1 a 0.64,0.64 0 0 1 -0.68,0.56 c -0.36,0 -0.59,0 -0.68,-0.14 a 2.31,2.31 0 0 0 -2.3,0.14 c -1.72,0.66 -2.67,1 -2.85,1.12 a 1.76,1.76 0 0 0 -1.08,0.7 6.72,6.72 0 0 1 -2.3,2.1 c -0.54,0.28 -0.91,0.09 -1.09,-0.56 a 5.38,5.38 0 0 1 0.55,-4.2 6,6 0 0 1 3,-2.79 c 0.35,-0.19 0.9,-0.52 1.62,-1 a 0.73,0.73 0 0 0 0.27,-1 60.84,60.84 0 0 1 -1.89,-10.07 q -0.82,-6 -1.63,-18 -0.13,-3.49 -0.13,-10.49 0,-2.1 -0.14,-7.83 -0.13,-4.91 -0.14,-7.84 0,-12 0.28,-20.42 0.12,-5.16 0,-8 a 13,13 0 0 0 -0.68,-3.07 1.57,1.57 0 0 0 -0.54,-0.84 4,4 0 0 1 -0.95,-1.68 1.64,1.64 0 0 1 1.08,-2.1 7,7 0 0 1 1.36,-0.56 3.17,3.17 0 0 0 1.49,-0.56 6.9,6.9 0 0 1 1.76,-0.14 13.63,13.63 0 0 0 2,0.28 5.35,5.35 0 0 1 2.3,0.84 17.1,17.1 0 0 0 3.93,2 9.77,9.77 0 0 1 1.9,0.84 8.23,8.23 0 0 0 1.62,1.12 4.13,4.13 0 0 1 1.5,1.36 18.81,18.81 0 0 1 1.76,3.78 C 30.55,120.7 31,122.42 31,122 v 0.28 c -0.1,0.74 -0.2,2.28 -0.29,4.61 a 19.23,19.23 0 0 1 -0.44,4.62 5,5 0 0 1 -0.29,1 l -0.3,0.41 -1.46,5.74 a 8.22,8.22 0 0 0 -0.44,2.24 c -0.2,1 -0.34,1.77 -0.44,2.23 a 2.1,2.1 0 0 1 -0.15,0.56 2.45,2.45 0 0 0 -0.14,0.7 9.8,9.8 0 0 0 -0.29,2.52 26.15,26.15 0 0 1 -1.18,6.43 l -0.14,0.14 c -0.78,0.84 -1.12,2.29 -1,4.34 q 0.28,5.18 0.14,11.33 -0.15,5.17 -0.29,4.61 0,0.15 0.15,2.94 c 0.09,1 0.19,2.38 0.29,4.06 a 39,39 0 0 0 0.14,4.19 c 0.1,3.36 0.15,5 0.15,4.76 v 0.46 c 0,0.18 0.09,1.84 0.28,5 0,0.46 0.22,0.64 0.68,0.55 0.46,-0.09 4,-0.51 10.34,-1.24 3,-0.28 6.15,-0.64 9.36,-1.1 a 17.48,17.48 0 0 0 4.69,-1.52 4.46,4.46 0 0 0 1.63,-1.75 v -0.32 l 0.14,-0.28 A 1.09,1.09 0 0 1 53,189 c 0.18,0 0.36,0.23 0.54,0.7 0.27,0.93 0.54,1.95 0.81,3.07 a 2.34,2.34 0 0 1 -0.13,1.4 8.24,8.24 0 0 1 -5.42,4.9 13.62,13.62 0 0 1 -3.25,0.7 11,11 0 0 0 -2.17,0.28 19.2,19.2 0 0 0 -2.17,0.28 12.43,12.43 0 0 1 -2.71,0 q -7.5,0.79 -8.18,0.79 z" />
    <path
       id="path6"
       d="m 108.48,199.86 a 10.28,10.28 0 0 0 6.58,-2.94 34,34 0 0 0 4.19,-6 q 2.39,-4.07 13.71,-38.74 1.39,-4.2 2.79,-2 a 4.6,4.6 0 0 1 0.84,3.91 q -9.93,35.67 -16.08,44.62 c -1.21,1.68 -3.5,3.35 -6.85,5 a 20.55,20.55 0 0 1 -8.81,2 12.12,12.12 0 0 1 -8.4,-3.08 24.08,24.08 0 0 1 -6.71,-11.88 c -0.74,-3 -1.31,-5.6 -1.68,-7.84 a 70.55,70.55 0 0 1 -1,-9.93 q -0.27,-5.44 -0.14,-7.41 a 1.87,1.87 0 0 0 -0.14,-0.84 c -0.46,0.38 -0.69,0.7 -0.69,1 a 12.46,12.46 0 0 1 -1.4,3.5 43,43 0 0 0 -2.1,4.47 8.53,8.53 0 0 0 -1,3.22 4.39,4.39 0 0 1 -0.28,1.12 c -0.37,0.75 -0.42,1.26 -0.14,1.54 0.09,0.09 0,0.42 -0.28,1 a 19.46,19.46 0 0 1 -1,1.95 c -0.37,0.94 -0.65,1.59 -0.84,2 a 2.16,2.16 0 0 0 -0.28,0.84 4.75,4.75 0 0 1 -0.7,2.8 0.47,0.47 0 0 0 -0.14,0.56 q 0.29,0.42 -2.79,3.35 c -2.15,2 -3.59,3 -4.34,3.22 a 1.67,1.67 0 0 0 -0.84,0.42 7,7 0 0 1 -1,0.7 9.93,9.93 0 0 1 -3.49,0.84 2.39,2.39 0 0 0 -0.7,0.14 2.51,2.51 0 0 1 -0.56,0.14 17.57,17.57 0 0 1 -4.9,-0.84 6.75,6.75 0 0 1 -3.07,-3.5 29.56,29.56 0 0 1 -2.52,-8.25 54.14,54.14 0 0 1 -0.28,-16.5 66.83,66.83 0 0 1 2.93,-12.59 21.81,21.81 0 0 1 3.78,-6.15 3.86,3.86 0 0 1 1.12,-1 13.73,13.73 0 0 1 4.76,-1.26 c 2.42,-0.19 3.54,-0.23 3.35,-0.14 a 18.68,18.68 0 0 1 5.18,-0.14 57.2,57.2 0 0 1 7.13,1 5.14,5.14 0 0 1 1.54,0.84 27.41,27.41 0 0 0 3.22,2.24 0.85,0.85 0 0 1 0.27,1.11 3.91,3.91 0 0 1 -2,2 6.87,6.87 0 0 1 -3.5,0.7 5.21,5.21 0 0 0 -3.22,1.16 14.88,14.88 0 0 0 -3.08,4.78 c -0.66,1.49 -1.08,2.51 -1.26,3.07 a 30.5,30.5 0 0 0 -1.54,5 5.78,5.78 0 0 1 -0.56,2.65 0.93,0.93 0 0 0 0,0.7 2.43,2.43 0 0 1 -0.14,1 c 0,0.1 -0.14,2.94 -0.42,8.54 v 1 c 0.09,0.47 0.23,0.7 0.42,0.7 0.19,0 0.42,0 0.7,-0.42 a 7.68,7.68 0 0 0 1.82,-2.79 q 3.07,-6.16 8.39,-15.81 a 79,79 0 0 1 5,-7.69 l 0.7,-0.7 c 2.24,-0.84 3.27,-1.21 3.08,-1.12 A 4,4 0 0 1 92,155 a 20.14,20.14 0 0 1 7.69,1.68 4.33,4.33 0 0 1 1.54,1.12 1.93,1.93 0 0 1 0.84,2 2.15,2.15 0 0 0 0,1.54 c 0.09,0.55 0.28,2.33 0.56,5.31 a 1.62,1.62 0 0 1 -0.14,0.7 2.48,2.48 0 0 0 0,1.68 3.73,3.73 0 0 1 0.14,1.12 q -0.15,6.15 -0.42,8.25 a 21,21 0 0 0 0.14,4.05 c 0.09,0.84 0.28,2.06 0.56,3.64 0.28,1.58 0.32,2.8 0.42,3.64 0.1,0.84 0.28,2 0.56,3.63 0.28,1.63 0.46,2.8 0.56,3.64 a 3,3 0 0 0 2.51,2.8 8.16,8.16 0 0 0 1.52,0.06 z" />
    <path
       id="path8"
       d="m 143,164.86 a 11.4,11.4 0 0 0 1.53,-2.36 38.07,38.07 0 0 1 2.78,-5.15 36.67,36.67 0 0 1 2.92,-4.59 6.05,6.05 0 0 0 1,-1.53 c 0.46,-0.64 0.79,-1.11 1,-1.39 a 35.7,35.7 0 0 1 2.64,-3.06 14.22,14.22 0 0 0 1.53,-1.94 29.08,29.08 0 0 1 5.14,-3.9 10,10 0 0 1 4.45,-1 c 0.74,0 1,0.05 0.84,0.14 a 4.17,4.17 0 0 1 2.78,0.56 5.43,5.43 0 0 1 2.08,2.22 c 0.37,0.74 0.47,1 0.28,0.7 a 11.66,11.66 0 0 1 2,5.14 2.1,2.1 0 0 0 0.14,0.7 4.06,4.06 0 0 1 0.13,0.69 5.8,5.8 0 0 1 0.14,2.23 2,2 0 0 0 0.14,0.83 8.23,8.23 0 0 1 -0.14,3.34 c -0.55,3.24 -1.06,5.84 -1.53,7.78 q -2.49,10 -2.5,10.15 c -0.09,0.28 -0.32,1 -0.69,2.09 a 13.82,13.82 0 0 0 -0.56,2.08 v 0.54 a 6.73,6.73 0 0 1 -0.23,1.26 c -0.65,2.61 -1,4 -1,4.05 0,0.05 -0.79,0.56 -0.79,0.56 v 0.57 q -0.56,1.52 0.41,4.53 a 2.35,2.35 0 0 0 2.61,2.06 2,2 0 0 0 1.1,-0.55 c 1.1,-0.91 2,-1.74 2.75,-2.47 q 0.67,-0.69 3,-3.57 c 1,-1.56 2.38,-3.94 4.12,-7.14 a 12.12,12.12 0 0 1 1.92,-2.61 c 1.1,-1.28 1.78,-2.06 2.06,-2.34 q 0,-0.13 4,-7.14 3.43,-6.18 4.53,-7 0.27,-0.13 1,0.69 c 0.55,0.55 0.78,0.91 0.69,1.09 q -0.41,5.78 -13.87,25.41 c -0.64,0.92 -2.2,2.88 -4.67,5.9 a 15.88,15.88 0 0 1 -4.25,3.57 17.24,17.24 0 0 1 -3.57,1.65 7.43,7.43 0 0 1 -4.67,-0.14 13.33,13.33 0 0 1 -5.63,-4.25 15.34,15.34 0 0 1 -3.16,-7.42 38.52,38.52 0 0 1 -0.27,-12.22 53.52,53.52 0 0 1 2.05,-9.47 q 0.82,-3 2.61,-7.83 0,-0.27 3.3,-8.51 a 18.93,18.93 0 0 0 0.82,-3 1.52,1.52 0 0 0 0.14,-0.68 c 0,-0.46 -0.23,-0.6 -0.69,-0.41 a 6.56,6.56 0 0 0 -1.78,0.68 31.35,31.35 0 0 0 -5.49,4.81 16.1,16.1 0 0 0 -2.61,3.43 q -2.07,3.44 -2.61,4.4 a 75,75 0 0 0 -3.57,8.37 77.62,77.62 0 0 1 -4.12,9.89 c -0.1,0.37 -0.18,0.78 -0.27,1.23 a 44.78,44.78 0 0 0 -1.5,4.4 29.46,29.46 0 0 0 -1.36,4.12 1,1 0 0 1 -0.41,0.68 1.69,1.69 0 0 0 -0.68,1.38 c 0,-0.28 -0.18,0.32 -0.55,1.78 -0.08,0.19 -0.18,0.28 -0.26,0.28 a 2.24,2.24 0 0 0 -1,1 10.22,10.22 0 0 1 -2.45,1.78 c -0.36,0.28 -0.81,0.23 -1.36,-0.13 a 12.78,12.78 0 0 1 -1.63,-1.1 5.41,5.41 0 0 1 -1.49,-2.47 26.37,26.37 0 0 1 -1.64,-7 q -0.42,-3.84 -0.55,-7.69 a 66.85,66.85 0 0 1 0,-8.51 v -2 c 0.09,-0.82 0.14,-1.37 0.14,-1.65 q 0.13,-3.44 0.41,-6.46 c 0.09,-1 0.23,-2.34 0.41,-4 0.28,-2 0.46,-3.31 0.55,-3.86 -0.09,0.28 0,-0.73 0.14,-3 0.18,-1.74 0.41,-3.39 0.69,-5 a 10,10 0 0 0 0.27,-2.61 2.45,2.45 0 0 1 0.14,-1.37 1.26,1.26 0 0 1 1.63,-1 2.76,2.76 0 0 0 1.23,0 c 0.09,-0.09 0.23,-0.09 0.41,0 0.18,0.09 0.77,0.23 1.5,0.41 a 5.34,5.34 0 0 1 1.63,0.42 6.18,6.18 0 0 1 1.63,1.1 18,18 0 0 1 3.81,4.4 6.62,6.62 0 0 1 1.09,2.62 4.15,4.15 0 0 1 0.14,2.33 1.28,1.28 0 0 0 -0.14,0.55 32.65,32.65 0 0 1 0.14,5.37 c -0.09,0.92 -0.18,1.88 -0.28,2.89 a 15.56,15.56 0 0 0 -0.13,2.34 13.74,13.74 0 0 1 -0.14,2.34 c 0,0.55 -0.05,1.42 -0.14,2.61 a 21.35,21.35 0 0 1 -0.13,2.75 z" />
    <path
       id="path10"
       d="m 220.23,135.24 a 9.56,9.56 0 0 0 1.54,-1.24 h 0.42 c 0,0 4.06,0.31 5.74,1.8 a 8.75,8.75 0 0 0 3.07,2 6.68,6.68 0 0 1 2.8,2 c 0.19,0.19 0.65,0.61 1.4,1.26 a 7.8,7.8 0 0 1 2.52,3.21 4.53,4.53 0 0 1 0.42,3.22 l -0.14,0.42 a 5.87,5.87 0 0 1 0,2.52 16.31,16.31 0 0 0 -0.28,2.37 0.65,0.65 0 0 1 -0.14,0.7 1.58,1.58 0 0 1 -0.58,0.84 v 0.42 c 0.58,0.19 0.53,0.42 0.44,0.7 a 2.1,2.1 0 0 0 -0.14,0.7 3.09,3.09 0 0 1 0,1.4 q -0.15,0.56 -0.42,2.1 a 11,11 0 0 0 -0.14,2.1 c -0.1,1 -0.19,1.77 -0.28,2.23 -0.09,0.46 -0.46,1.54 -0.46,1.54 v 1.82 l 1,2.52 v 2.65 a 34.83,34.83 0 0 0 -1.1,4.48 c 0.09,1.12 0.14,1.63 0.14,1.54 a 0.18,0.18 0 0 0 0.28,0 Q 250,164.33 256.18,154.4 a 1.4,1.4 0 0 1 1.82,-0.7 c 0.74,0.28 1,0.89 0.7,1.82 q -0.85,2.65 -12.17,15.39 l -10.91,12.58 q -0.28,5.59 -0.14,5 a 2,2 0 0 0 0,1.12 3.78,3.78 0 0 1 -0.14,1.12 6.2,6.2 0 0 0 -0.14,1.53 4.2,4.2 0 0 1 0,1.54 12,12 0 0 1 -0.14,1.54 7.62,7.62 0 0 1 -0.14,1.68 c 0.09,-0.75 0,0.61 -0.42,4.06 a 23.62,23.62 0 0 1 -0.28,3.35 c -0.09,0.1 -0.09,0.28 0,0.56 a 3.66,3.66 0 0 1 0,1.4 c 0,0.19 -0.09,1.68 -0.28,4.48 -0.19,2.8 -0.33,4.28 -0.42,4.75 -0.19,2.14 -0.28,3.4 -0.28,3.78 -0.09,-0.56 -0.23,-0.05 -0.42,1.54 -0.19,2.23 -0.28,3.58 -0.28,4.05 0,0.28 -0.14,1.49 -0.42,3.64 0,0.09 -0.05,0.42 -0.14,1 -0.47,3.72 -0.74,5.78 -0.84,6.15 a 55.23,55.23 0 0 1 -4.75,14.69 c -1.68,3.44 -4.25,5.36 -7.7,5.73 a 11.13,11.13 0 0 1 -8.8,-3.36 18.06,18.06 0 0 1 -3.22,-4.47 q -2.8,-5.88 -2.52,-5.74 a 11.7,11.7 0 0 0 -0.14,-2.93 c -0.09,-1.12 -0.14,-2.34 -0.14,-3.64 a 36,36 0 0 1 0.84,-6.71 54.59,54.59 0 0 1 4.2,-12.59 q 1.53,-3.36 6.29,-11.33 c 1.12,-1.77 2.56,-4 4.34,-6.57 a 2.78,2.78 0 0 0 0.41,-1.4 c 0.1,-2 0.14,-4.85 0.05,-8.39 v -21.24 a 1.55,1.55 0 0 0 -0.05,-1 7.75,7.75 0 0 0 -0.55,0.7 53.57,53.57 0 0 1 -7.28,9.79 q -0.84,1 -2.94,2.94 l -0.13,0.14 c 0.46,-0.1 -0.42,0.42 -2.66,1.54 a 2.26,2.26 0 0 1 -1.4,0.27 2.39,2.39 0 0 0 -0.7,0.14 11.82,11.82 0 0 1 -1.26,0.7 c -0.93,0.56 -1.73,0.61 -2.38,-0.07 h -1 a 5.43,5.43 0 0 1 -2.52,-0.07 5.59,5.59 0 0 1 -3.08,-1.67 10.41,10.41 0 0 1 -2.38,-4.34 26.94,26.94 0 0 1 -1,-7 65.77,65.77 0 0 1 0.84,-13.29 38.51,38.51 0 0 1 3.5,-10.49 31.18,31.18 0 0 1 6.15,-8.81 q 4.2,-3.92 9.09,-2.66 c 0.56,0.19 1.22,0.38 2,0.56 a 12.38,12.38 0 0 1 4.34,1.82 6.12,6.12 0 0 0 1.54,1 12.67,12.67 0 0 0 1.53,1 0.61,0.61 0 0 0 0.56,0 l -0.56,-1.12 a 1.75,1.75 0 0 1 0.57,-2.67 z M 206,174.82 a 53.23,53.23 0 0 0 4.61,-7.41 q 0.42,-0.84 2.66,-5.17 c 1.12,-2.05 2,-3.78 2.66,-5.18 q 0.56,-0.84 4.75,-8.39 a 2.53,2.53 0 0 0 0.42,-1.26 c 0,-0.28 0,-0.89 -0.14,-1.82 v -1.68 a 1.52,1.52 0 0 0 -0.14,-0.84 l -1,0.56 a 21.41,21.41 0 0 0 -3.07,1.54 q -4.77,3.92 -4.48,3.5 c -0.93,1.12 -1.54,1.82 -1.82,2.1 a 45.2,45.2 0 0 0 -2.8,4.61 23.08,23.08 0 0 0 -2.09,5.6 c 0.18,-0.84 -0.19,1.39 -1.12,6.71 0,0.28 -0.05,0.79 -0.14,1.54 a 6.9,6.9 0 0 1 -0.14,1.54 14.85,14.85 0 0 0 0,4.19 8.29,8.29 0 0 0 0.28,1.54 6.71,6.71 0 0 0 1.56,-1.68 z m 11.4,32.31 a 57.92,57.92 0 0 0 -7.41,18 55.23,55.23 0 0 0 -1.4,9 53.53,53.53 0 0 0 0.14,8.53 c 0.09,0.37 0.28,1.07 0.55,2.1 a 9.44,9.44 0 0 1 0.28,2 1.32,1.32 0 0 0 0.14,0.56 q 2.25,3.63 2.8,4.47 a 2.88,2.88 0 0 0 1,0.84 c 1,0.65 1.77,0.47 2.24,-0.56 a 4.18,4.18 0 0 0 0.28,-1 c 0.37,-1.49 0.6,-2.42 0.7,-2.79 a 62.82,62.82 0 0 0 1.4,-8.25 c 0,-0.84 0.09,-2.15 0.28,-3.92 0.19,-1.77 0.18,-2.94 0.27,-3.78 q 0.7,-10.49 0.71,-13.42 0,-2.25 0.27,-6.16 0.29,-4.47 0.14,-9.37 l -0.55,0.84 a 31,31 0 0 1 -1.8,2.91 z" />
    <path
       id="path12"
       d="m 271,174.82 a 7.94,7.94 0 0 1 1,-1.65 12.53,12.53 0 0 0 1.23,-2.62 11.84,11.84 0 0 0 0.83,-1.65 c 0.36,-0.73 0.63,-1.28 0.82,-1.65 0.19,-0.37 0.5,-0.87 1,-1.79 0.37,-0.73 0.64,-1.33 0.83,-1.79 0.63,-1.38 1.63,-3.3 3,-5.78 1.37,-2.48 1.92,-3.63 1.92,-3.72 0.82,-1.19 2.14,-3.17 4,-5.92 q 2.33,-3.44 3.83,-5.37 a 8.46,8.46 0 0 0 0.83,-1.1 4.66,4.66 0 0 1 0.82,-1.24 5.55,5.55 0 0 1 1.63,-1.38 1.59,1.59 0 0 0 0.69,-0.41 3.31,3.31 0 0 1 2.21,-0.82 c 0.27,0 1.14,-0.05 2.61,-0.14 a 1.85,1.85 0 0 1 1.24,0.14 6,6 0 0 0 1.24,0.55 10.35,10.35 0 0 1 5,3.71 8.52,8.52 0 0 1 1.51,2.21 16,16 0 0 1 1.38,4.68 12,12 0 0 0 0.55,2.47 v 3.55 c 0,0 0.13,2.52 0,4.48 -0.13,1.96 -0.28,3.59 -0.28,4.61 0,0.56 -0.05,1.4 -0.14,2.52 a 3,3 0 0 0 -0.14,1.12 2.94,2.94 0 0 1 -0.14,1 l -0.28,1.54 a 0.82,0.82 0 0 0 -0.14,0.56 5.85,5.85 0 0 1 -0.92,3.35 v 0.4 a 1.37,1.37 0 0 1 0,0.85 v 2.41 a 4,4 0 0 0 0,1.56 2.75,2.75 0 0 1 -0.14,0.85 q -0.44,0.57 -0.57,3.69 a 13.09,13.09 0 0 0 0.71,3.68 5.39,5.39 0 0 0 0.14,1 2.52,2.52 0 0 0 0.14,1 c 0.29,0.57 0.9,0.62 1.85,0.14 a 6.77,6.77 0 0 0 1.7,-1.84 q 2.55,-3.83 10.2,-16.87 2.55,-4.4 5.53,-9.36 5.81,-10.2 5.53,-9.92 c 0.66,-0.76 1.75,-0.8 3.26,-0.14 a 32.37,32.37 0 0 1 -5.67,12.76 q -0.57,0.84 -7.09,12.19 -6.52,11.35 -6.94,11.91 -3.69,5.1 -5.39,6.09 c -2.46,1.61 -3.59,2.36 -3.4,2.27 a 6.55,6.55 0 0 1 -6.81,-1.84 19.56,19.56 0 0 1 -5.24,-9.5 81,81 0 0 1 -1.84,-8.51 59.46,59.46 0 0 1 -0.71,-9.07 q -0.15,-4.25 0,-13.75 c 0,-0.09 0,-2.27 0.14,-6.52 a 5.05,5.05 0 0 0 0,-1.7 9.22,9.22 0 0 0 -1.53,1.24 43.06,43.06 0 0 0 -3.24,4.68 q -0.28,0.28 -1.26,1.56 a 18.82,18.82 0 0 0 -2.26,3.83 q -0.28,0.57 -0.84,1.56 c -0.38,0.76 -0.62,1.23 -0.71,1.42 a 7.43,7.43 0 0 0 -0.56,1 c -0.28,0.47 -0.47,0.8 -0.56,1 -0.09,0.2 -0.33,0.9 -0.71,1.84 -0.28,0.67 -0.8,1.85 -1.55,3.55 a 35.55,35.55 0 0 0 -1.4,3.68 22.85,22.85 0 0 1 -2.26,4.68 14.39,14.39 0 0 0 -1.27,3 l -0.56,1 c -0.75,1.32 -1.17,2.08 -1.27,2.27 a 3.23,3.23 0 0 1 -1.26,1.56 7.1,7.1 0 0 0 -1.42,1.13 11,11 0 0 1 -3.29,2.69 4.46,4.46 0 0 1 -3.14,0 10.12,10.12 0 0 1 -5.43,-4.82 21.25,21.25 0 0 1 -2.15,-5.81 57,57 0 0 1 -2,-10.06 q -1,-6.37 -1.14,-9.36 c -0.48,-5.48 -0.71,-9.21 -0.71,-11.2 -0.1,-2.83 -0.14,-4.63 -0.14,-5.38 a 5.84,5.84 0 0 0 -0.15,-1.14 31.09,31.09 0 0 1 -1.13,-4 0.89,0.89 0 0 1 0.28,-1.27 2.27,2.27 0 0 1 1,-0.28 9.48,9.48 0 0 0 1.13,-0.29 3.44,3.44 0 0 1 2.29,-0.28 1.63,1.63 0 0 0 1.14,-0.14 2.57,2.57 0 0 1 1.43,0.14 15.71,15.71 0 0 0 3.29,1.27 1.54,1.54 0 0 1 1,0.57 0.91,0.91 0 0 0 0.57,0.43 11,11 0 0 1 3.29,3.11 19.56,19.56 0 0 1 2.43,4.82 41.41,41.41 0 0 1 1.57,6.67 V 152 a 6.45,6.45 0 0 1 1,1.11 7.51,7.51 0 0 1 0.28,1.54 q 0.14,6.3 0.14,6.72 c -0.19,2.23 -0.42,5.45 -0.42,5.45 v 0.67 a 1.54,1.54 0 0 1 -0.14,0.69 c -0.18,0.55 -0.23,0.74 -0.14,0.55 a 3,3 0 0 0 -0.41,2.48 2.43,2.43 0 0 1 -0.13,1.38 5.31,5.31 0 0 0 0,1.79 1.52,1.52 0 0 1 -0.28,1.24 0.6,0.6 0 0 0 0.14,1 c 0.17,-0.28 0.49,-0.88 0.95,-1.8 z" />
    <path
       id="path14"
       d="m 381.48,199.86 a 10.28,10.28 0 0 0 6.58,-2.94 34,34 0 0 0 4.19,-6 q 2.38,-4.07 13.71,-38.74 1.4,-4.2 2.79,-2 a 4.64,4.64 0 0 1 0.85,3.91 q -9.94,35.67 -16.09,44.62 c -1.21,1.68 -3.5,3.35 -6.85,5 a 20.55,20.55 0 0 1 -8.81,2 12.12,12.12 0 0 1 -8.4,-3.08 24.08,24.08 0 0 1 -6.71,-11.88 c -0.74,-3 -1.31,-5.6 -1.68,-7.84 a 70.55,70.55 0 0 1 -1,-9.93 q -0.27,-5.44 -0.14,-7.41 a 1.87,1.87 0 0 0 -0.14,-0.84 c -0.46,0.38 -0.69,0.7 -0.69,1 a 12.15,12.15 0 0 1 -1.4,3.5 43,43 0 0 0 -2.1,4.47 8.53,8.53 0 0 0 -1,3.22 4.39,4.39 0 0 1 -0.28,1.12 c -0.37,0.75 -0.42,1.26 -0.14,1.54 0.09,0.09 0,0.42 -0.28,1 a 19.46,19.46 0 0 1 -1,1.95 c -0.37,0.94 -0.65,1.59 -0.84,2 a 2.16,2.16 0 0 0 -0.28,0.84 4.75,4.75 0 0 1 -0.7,2.8 0.47,0.47 0 0 0 -0.14,0.56 q 0.28,0.42 -2.79,3.35 c -2.15,2 -3.59,3 -4.34,3.22 a 1.67,1.67 0 0 0 -0.84,0.42 7,7 0 0 1 -1,0.7 9.93,9.93 0 0 1 -3.49,0.84 2.39,2.39 0 0 0 -0.7,0.14 2.51,2.51 0 0 1 -0.56,0.14 17.57,17.57 0 0 1 -4.9,-0.84 6.75,6.75 0 0 1 -3.07,-3.5 29.56,29.56 0 0 1 -2.52,-8.25 54.14,54.14 0 0 1 -0.28,-16.5 66.83,66.83 0 0 1 2.93,-12.59 21.81,21.81 0 0 1 3.78,-6.15 3.86,3.86 0 0 1 1.12,-1 13.73,13.73 0 0 1 4.76,-1.26 c 2.42,-0.19 3.54,-0.23 3.35,-0.14 a 18.68,18.68 0 0 1 5.18,-0.14 57.2,57.2 0 0 1 7.13,1 5.14,5.14 0 0 1 1.54,0.84 27.41,27.41 0 0 0 3.22,2.24 0.85,0.85 0 0 1 0.27,1.11 3.91,3.91 0 0 1 -1.95,2 6.87,6.87 0 0 1 -3.5,0.7 5.21,5.21 0 0 0 -3.36,1.26 14.88,14.88 0 0 0 -3.07,4.76 c -0.66,1.49 -1.07,2.51 -1.26,3.07 a 30.5,30.5 0 0 0 -1.54,5 5.78,5.78 0 0 1 -0.56,2.65 0.93,0.93 0 0 0 0,0.7 2.43,2.43 0 0 1 -0.14,1 c 0,0.1 -0.14,2.94 -0.42,8.54 v 1 c 0.09,0.47 0.23,0.7 0.42,0.7 0.19,0 0.42,0 0.7,-0.42 a 7.68,7.68 0 0 0 1.82,-2.79 q 3.07,-6.16 8.39,-15.81 a 79,79 0 0 1 5,-7.69 l 0.7,-0.7 c 2.24,-0.84 3.27,-1.21 3.08,-1.12 A 4,4 0 0 1 365,155 a 20.14,20.14 0 0 1 7.69,1.68 4.33,4.33 0 0 1 1.54,1.12 1.93,1.93 0 0 1 0.84,2 2.15,2.15 0 0 0 0,1.54 c 0.09,0.55 0.28,2.33 0.56,5.31 a 1.62,1.62 0 0 1 -0.14,0.7 2.48,2.48 0 0 0 0,1.68 3.73,3.73 0 0 1 0.14,1.12 q -0.15,6.15 -0.42,8.25 a 21,21 0 0 0 0.14,4.05 c 0.09,0.84 0.28,2.06 0.56,3.64 0.28,1.58 0.32,2.8 0.42,3.64 0.1,0.84 0.28,2 0.56,3.63 0.28,1.63 0.46,2.8 0.56,3.64 a 3,3 0 0 0 2.51,2.8 8.16,8.16 0 0 0 1.52,0.06 z" />
    <path
       id="path16"
       d="m 431.14,134.57 a 3.38,3.38 0 0 1 1.53,-0.57 h 0.14 c 0,0 4.06,0.31 5.74,1.8 a 8.75,8.75 0 0 0 3.07,2 6.68,6.68 0 0 1 2.8,2 c 0.19,0.19 0.65,0.61 1.4,1.26 a 7.8,7.8 0 0 1 2.52,3.21 4.53,4.53 0 0 1 0.42,3.22 l -0.14,0.42 a 5.87,5.87 0 0 1 0,2.52 16.31,16.31 0 0 0 -0.28,2.37 0.65,0.65 0 0 1 -0.14,0.7 c -0.09,0.19 -0.09,0.47 -0.2,0.84 v 0.42 c 0.2,0.19 0.15,0.42 0.06,0.7 a 2.1,2.1 0 0 0 -0.14,0.7 3.09,3.09 0 0 1 0,1.4 q -0.15,0.56 -0.42,2.1 a 11,11 0 0 0 -0.14,2.1 c -0.09,1 -0.19,1.77 -0.28,2.23 a 8,8 0 0 1 -1.08,1.54 v 1.82 c 0.85,0.56 1,2.52 1,2.52 v 2.34 c -0.19,2.16 -0.28,3.67 -0.28,4.52 0.09,1.12 0.14,1.64 0.14,1.55 a 0.18,0.18 0 0 0 0.28,0 q 13.64,-14.26 19.76,-24.29 a 1.37,1.37 0 0 1 1.8,-0.71 c 0.74,0.29 1,0.9 0.7,1.84 q -0.84,2.69 -12.1,15.53 l -10.86,12.71 c -0.18,3.77 -0.23,5.46 -0.13,5.09 a 2,2 0 0 0 0,1.13 3.73,3.73 0 0 1 -0.14,1.12 6.48,6.48 0 0 0 -0.14,1.56 4.26,4.26 0 0 1 0,1.55 12.43,12.43 0 0 1 -0.14,1.56 7.79,7.79 0 0 1 -0.14,1.69 c 0.09,-0.75 -0.05,0.61 -0.42,4.1 a 24,24 0 0 1 -0.28,3.38 q -0.14,0.15 0,0.57 a 3.72,3.72 0 0 1 0,1.41 c 0,0.19 -0.09,1.7 -0.28,4.52 -0.19,2.82 -0.32,4.33 -0.41,4.8 -0.19,2.17 -0.28,3.44 -0.28,3.81 -0.1,-0.56 -0.23,0 -0.42,1.56 -0.18,2.26 -0.28,3.62 -0.28,4.09 0,0.28 -0.14,1.51 -0.41,3.67 0,0.1 -0.05,0.43 -0.14,1 q -0.7,5.66 -0.84,6.21 a 56.49,56.49 0 0 1 -4.73,14.83 q -2.5,5.22 -7.65,5.79 a 11,11 0 0 1 -8.76,-3.39 18.42,18.42 0 0 1 -3.21,-4.52 c -1.85,-4 -2.69,-5.88 -2.5,-5.79 a 12.58,12.58 0 0 0 -0.14,-3 c -0.09,-1.13 -0.14,-2.36 -0.14,-3.67 a 36.74,36.74 0 0 1 0.84,-6.78 55.38,55.38 0 0 1 4.17,-12.71 q 1.53,-3.39 6.26,-11.44 c 1.11,-1.78 2.55,-4 4.31,-6.63 a 2.74,2.74 0 0 0 0.42,-1.42 q 0.13,-3.1 0.14,-8.47 v -21.51 a 2.52,2.52 0 0 0 -0.14,-1 7,7 0 0 0 -0.55,0.71 54.5,54.5 0 0 1 -7.24,9.88 c -0.56,0.66 -1.53,1.65 -2.92,3 l -0.14,0.14 c 0.46,-0.1 -0.42,0.42 -2.64,1.55 a 2.21,2.21 0 0 1 -1.4,0.28 2.39,2.39 0 0 0 -0.69,0.14 12.25,12.25 0 0 1 -1.25,0.71 2,2 0 0 1 -2.37,0.14 h -1 a 16.31,16.31 0 0 1 -2.51,-0.28 5.56,5.56 0 0 1 -3.06,-1.7 10.49,10.49 0 0 1 -2.36,-4.37 27.58,27.58 0 0 1 -1,-7.07 67.07,67.07 0 0 1 0.84,-13.41 39.21,39.21 0 0 1 3.48,-10.59 31.53,31.53 0 0 1 6.12,-8.9 q 4.17,-3.94 9,-2.68 0.84,0.28 1.95,0.57 a 12.14,12.14 0 0 1 4.31,1.83 6.49,6.49 0 0 0 1.53,1 13,13 0 0 0 1.53,1 0.61,0.61 0 0 0 0.56,0 l -0.56,-1.13 a 1.77,1.77 0 0 1 0.65,-2.72 z M 416,174.82 a 53.23,53.23 0 0 0 4.61,-7.41 q 0.42,-0.84 2.66,-5.17 c 1.12,-2.05 2,-3.78 2.66,-5.18 q 0.55,-0.84 4.75,-8.39 a 2.53,2.53 0 0 0 0.42,-1.26 c 0,-0.28 -0.05,-0.89 -0.14,-1.82 v -1.68 a 1.52,1.52 0 0 0 -0.14,-0.84 l -1,0.56 a 21.41,21.41 0 0 0 -3.07,1.54 q -4.77,3.92 -4.48,3.5 c -0.93,1.12 -1.54,1.82 -1.82,2.1 a 45.2,45.2 0 0 0 -2.8,4.61 23.08,23.08 0 0 0 -2.09,5.6 c 0.18,-0.84 -0.19,1.39 -1.12,6.71 0,0.28 -0.05,0.79 -0.14,1.54 a 6.9,6.9 0 0 1 -0.14,1.54 14.85,14.85 0 0 0 0,4.19 8.29,8.29 0 0 0 0.28,1.54 6.71,6.71 0 0 0 1.56,-1.68 z m 12,32.31 a 57.92,57.92 0 0 0 -7.41,18 56.37,56.37 0 0 0 -1.4,9 53.53,53.53 0 0 0 0.14,8.53 c 0.09,0.37 0.28,1.07 0.56,2.1 a 10.18,10.18 0 0 1 0.28,2 1.19,1.19 0 0 0 0.14,0.56 q 2.24,3.63 2.79,4.47 a 2.88,2.88 0 0 0 1,0.84 c 1,0.65 1.77,0.47 2.24,-0.56 a 4.18,4.18 0 0 0 0.28,-1 c 0.37,-1.49 0.61,-2.42 0.7,-2.79 a 62.82,62.82 0 0 0 1.4,-8.25 c 0,-0.84 0.09,-2.15 0.28,-3.92 0.19,-1.77 0.18,-2.94 0.28,-3.78 q 0.69,-10.49 0.7,-13.42 0,-2.25 0.28,-6.16 0.27,-4.47 0.14,-9.37 l -0.56,0.84 a 31,31 0 0 1 -1.78,2.91 z" />
    <path
       id="path18"
       d="m 460.4,165.45 c 1,-4.85 1.63,-7.5 1.82,-8 a 13.91,13.91 0 0 1 3.07,-5 c 0.1,0 0.28,-0.23 0.56,-0.69 a 6.82,6.82 0 0 1 3.36,-2.94 24.56,24.56 0 0 1 11.33,-1.4 7.81,7.81 0 0 1 3.07,1 2.94,2.94 0 0 1 1.54,2 c 0,0.46 0.28,0.7 0.84,0.7 a 3.26,3.26 0 0 1 2.38,1.53 l 0.7,0.7 c 0.46,0.19 0.74,0.8 0.84,1.82 a 9.13,9.13 0 0 1 -0.42,4.9 37.63,37.63 0 0 0 -0.84,3.91 c -0.37,1.5 -0.93,3.31 -1.68,5.46 0.19,-0.56 -0.19,0.14 -1.12,2.1 -0.28,0.65 -0.6,1.53 -1,2.65 a 19.18,19.18 0 0 1 -0.83,2.52 q -0.29,0.42 -2.1,3.92 a 30.24,30.24 0 0 0 -2.94,6.15 V 188 a 13.05,13.05 0 0 0 2.8,7.55 c 1.3,2 2.09,3.13 2.38,3.5 l 0.55,0.56 a 1.81,1.81 0 0 0 2.8,-0.14 q 4.89,-5.17 13.57,-25.46 2.79,-6.15 5.59,-13.56 2.65,-6.72 2.38,-6.16 c 0.37,-0.84 0.79,-1.3 1.26,-1.39 1.58,0 2.28,0.32 2.09,1 q -7.83,29.24 -22.23,50.35 l -2.94,2.52 a 9.59,9.59 0 0 1 -3.64,1.68 16.6,16.6 0 0 1 -2.51,0.28 8,8 0 0 1 -3.36,-0.42 21.37,21.37 0 0 1 -6.29,-4.34 40.05,40.05 0 0 1 -8,-10.91 29.74,29.74 0 0 1 -2.79,-8.95 101.87,101.87 0 0 1 -0.7,-10.35 q 0.46,-8.16 0.46,-8.31 z m 21.08,7.13 a 54.79,54.79 0 0 0 1.68,-6.71 30.1,30.1 0 0 0 0.42,-9.37 4.12,4.12 0 0 0 -0.42,-1.68 11.32,11.32 0 0 0 -2.8,3.78 45.91,45.91 0 0 0 -2.93,9.79 31,31 0 0 0 -0.14,8.81 l 0.14,2.94 0.28,-0.14 a 33.1,33.1 0 0 0 3.77,-7.42 z" />
    <path
       id="path20"
       d="m 131.89,285.31 a 7.62,7.62 0 0 0 -2.2,4.89 c -0.17,2.12 -0.41,5.3 -0.74,9.53 a 17,17 0 0 1 -0.24,3.18 17,17 0 0 0 -0.24,3.17 14.66,14.66 0 0 1 -0.25,3.18 16,16 0 0 1 -0.49,2.93 16.58,16.58 0 0 0 -0.24,3.42 A 5.51,5.51 0 0 1 127,319 v 25.27 a 124,124 0 0 0 0.12,15.74 15.6,15.6 0 0 1 0.25,2.42 c -0.17,0.65 0.63,11.14 0.63,11.14 v 4.83 a 23.48,23.48 0 0 1 0,4.84 11.49,11.49 0 0 0 0.73,4.12 6.49,6.49 0 0 1 0.24,3.15 c -0.16,0.81 -0.49,1.21 -1,1.21 a 0.64,0.64 0 0 0 -0.73,0.72 2.49,2.49 0 0 1 -0.48,1 6.65,6.65 0 0 0 -1.7,4.84 c 0.16,1.29 -0.56,1.62 -2.17,1 a 18,18 0 0 0 -2.18,-0.73 2.36,2.36 0 0 0 -1.7,-0.24 q -4.83,0.49 -11.86,-2.66 A 6.67,6.67 0 0 1 103.52,391.29 91.12,91.12 0 0 1 99.68,377 q -1.94,-12.83 -2.42,-19.12 -0.72,-9 -1,-19.36 -0.24,-10.17 0.25,-24.21 a 5.84,5.84 0 0 0 -0.25,-2.42 7.33,7.33 0 0 0 -2.41,-0.24 q -1.44,0.24 -11.55,1.21 c -2.73,0.32 -5.94,0.81 -9.63,1.45 -0.48,0.16 -1.29,0.49 -2.41,1 -1.12,0.51 -1.92,0.57 -2.4,0.73 q 0.47,-0.24 -11.32,2.42 a 5.77,5.77 0 0 0 -4.78,5.54 47.69,47.69 0 0 0 0,7 q 0.24,5.58 0.24,7.27 c -0.16,6 -0.33,9.35 -0.49,10.16 a 6.12,6.12 0 0 0 0.25,1.45 4.06,4.06 0 0 1 0.24,1.21 17.37,17.37 0 0 0 0,4.12 v 3.92 c 0,1.14 0.08,2.69 0.24,4.64 0.16,2.12 0.25,3.67 0.25,4.64 q 0,1.71 0.24,5.13 c 0.16,2.44 0.25,4.24 0.25,5.38 q 0,6.58 0.49,4.88 c 0.16,-0.65 0,0.24 -0.49,2.69 -0.66,3.75 -1,5.86 -1,6.35 0.16,0.33 0.08,0.49 -0.25,0.49 a 13.29,13.29 0 0 0 -1.22,0.73 c -0.32,0.33 -0.57,0.49 -0.73,0.49 a 4.49,4.49 0 0 0 -2.71,1.71 10.31,10.31 0 0 1 -2.46,1.95 c -0.33,0.17 -0.42,0.58 -0.25,1.23 -0.17,-0.33 -0.5,0.48 -1,2.44 -0.34,1.13 -1.16,1.46 -2.47,1 A 30.28,30.28 0 0 0 37,401.39 q -4.44,-1.22 -6.65,-6.35 a 65,65 0 0 1 -3.95,-9.28 42.38,42.38 0 0 1 -2.71,-12 c 0,-1.47 -0.33,-4.72 -1,-9.77 q -1,-10.26 -1,-13.44 0,-1.95 -0.24,-5.37 a 51,51 0 0 1 -0.49,-5.38 q -0.26,-9.52 -0.25,-8.55 c -0.16,-1.62 -0.24,-3.5 -0.24,-5.62 0,-0.81 -0.41,-1.13 -1.22,-1 a 12.63,12.63 0 0 1 -6.6,-1.23 L 11.21,323 Q 3.63,321.78 1.43,314.69 A 15.23,15.23 0 0 0 0,311.25 q -1.21,-2 0.73,-3.66 1.94,-1.66 4.64,-0.25 a 5.59,5.59 0 0 0 2.93,0.74 q 0.24,0 10.75,-1.47 c 0.82,0 1.14,-0.49 1,-1.47 v -3.45 c 0,-0.81 -0.08,-5 -0.24,-12.6 q -0.26,-3.63 -0.25,-13.56 0,-2.17 0.25,-12.35 a 67.42,67.42 0 0 0 -1.94,-16.71 13.75,13.75 0 0 0 -4.6,-7.27 8.09,8.09 0 0 1 -1.94,-4.6 3.24,3.24 0 0 1 1,-2.66 3.7,3.7 0 0 1 2.66,-1.21 A 31.21,31.21 0 0 0 20,230 q 7.82,-1.94 12.7,1.94 a 11.58,11.58 0 0 0 3.17,1.69 27.68,27.68 0 0 1 8.55,4.85 11.71,11.71 0 0 1 4.15,7 32.86,32.86 0 0 0 1,5.81 31.51,31.51 0 0 1 0.72,5.82 c 0.16,1.61 0.32,4.2 0.49,7.75 q 0,4.85 0.24,7.5 a 18.61,18.61 0 0 1 -0.49,5.57 16.22,16.22 0 0 0 0,5.57 27.44,27.44 0 0 1 0.49,7.27 v 3.81 c 0.16,3.42 0.24,5.22 0.24,5.38 q -0.24,1.95 1.47,1.71 c 2.1,-0.33 4.86,-0.74 8.26,-1.23 4.21,-0.48 7,-0.81 8.27,-1 A 136.62,136.62 0 0 1 95,298 a 1.72,1.72 0 0 0 1.94,-1.95 q 0.24,-13.2 1.22,-24.93 a 76.76,76.76 0 0 1 1.23,-9 62.5,62.5 0 0 0 1,-7.82 c 0.16,-2.28 0.25,-3.67 0.25,-4.16 a 82.06,82.06 0 0 0 0.49,-12 c -0.17,-0.49 0.32,-1.47 1.46,-2.93 a 3.09,3.09 0 0 1 1.47,-1.47 7,7 0 0 0 2,-1.22 7.18,7.18 0 0 1 2,-1.22 q 4.77,-1 6.71,-0.2 l 3.27,0.44 a 3.09,3.09 0 0 1 1.75,0.49 51.78,51.78 0 0 1 6.6,4.64 34.51,34.51 0 0 0 7.08,4.89 8.83,8.83 0 0 1 4.89,6.6 7.38,7.38 0 0 0 0.49,1.46 2.66,2.66 0 0 1 0.73,2 62.09,62.09 0 0 1 -0.48,10 c -0.82,3.91 -1.39,6.93 -1.72,9 q -2.44,14.67 -2.44,13.44 c -1.1,-0.29 -2.07,0.12 -3.05,1.25 z" />
    <path
       id="path22"
       d="m 137.79,331.72 q 2.67,-12.6 3.15,-13.81 2.42,-6 5.33,-8.72 c 0.16,0 0.48,-0.4 1,-1.21 a 11.8,11.8 0 0 1 5.81,-5.08 42.39,42.39 0 0 1 19.61,-2.42 13.63,13.63 0 0 1 5.33,1.69 5.1,5.1 0 0 1 2.67,3.39 c 0,0.81 0.48,1.21 1.45,1.21 a 5.7,5.7 0 0 1 4.12,2.67 l 1.21,1.21 c 0.8,0.32 1.29,1.37 1.45,3.14 a 15.83,15.83 0 0 1 -0.72,8.48 c -0.17,0.33 -0.65,2.59 -1.46,6.78 -0.65,2.59 -1.61,5.73 -2.9,9.45 q 0.48,-1.46 -1.94,3.63 c -0.49,1.13 -1.05,2.66 -1.7,4.6 a 31.52,31.52 0 0 1 -1.45,4.36 c -0.33,0.48 -1.54,2.75 -3.63,6.78 q -4.6,8.24 -5.09,10.66 v 2.18 q 0,6.3 4.84,13.07 c 2.26,3.39 3.64,5.42 4.12,6.06 l 1,1 c 1.78,1.45 3.39,1.37 4.85,-0.24 q 8.46,-9 23.49,-44.08 4.77,-10.68 9.67,-23.52 4.61,-11.62 4.12,-10.66 c 0.64,-1.45 1.37,-2.26 2.18,-2.42 2.74,0 3.95,0.57 3.63,1.69 q -13.56,50.63 -38.5,87.19 l -5.09,4.36 a 16.4,16.4 0 0 1 -6.3,2.9 26.45,26.45 0 0 1 -4.36,0.49 13.7,13.7 0 0 1 -5.81,-0.73 37.23,37.23 0 0 1 -10.9,-7.5 69.45,69.45 0 0 1 -13.8,-18.89 q -3.15,-5.82 -4.85,-15.5 A 178.85,178.85 0 0 1 137.06,346 q 0.74,-14 0.73,-14.28 z m 37.77,12.35 a 99.19,99.19 0 0 0 2.91,-11.63 52.25,52.25 0 0 0 0.72,-16.22 7.35,7.35 0 0 0 -0.72,-2.91 19.54,19.54 0 0 0 -4.85,6.54 80.86,80.86 0 0 0 -5.09,16.95 54.07,54.07 0 0 0 -0.24,15.26 l 0.24,5.09 0.49,-0.25 a 57.25,57.25 0 0 0 6.54,-12.83 z" />
    <path
       id="path24"
       d="M 218.42,364.41 A 149.18,149.18 0 0 1 224,346 c 0.15,-0.48 1.53,-3.87 4.11,-10.17 l 1.7,-4.11 a 3.41,3.41 0 0 0 -1.21,-3.88 28.17,28.17 0 0 0 -6.06,-3.15 32.87,32.87 0 0 1 -6.54,-3.39 23.69,23.69 0 0 1 -7.5,-7.51 q -5.33,-8.46 -5.82,-15.74 a 27,27 0 0 1 3.39,-15.25 38.08,38.08 0 0 1 7.27,-9.21 9.32,9.32 0 0 1 6.78,-2.9 q 0.48,0 6.54,-0.24 a 11.12,11.12 0 0 1 4.34,1.45 2.32,2.32 0 0 1 1.45,1.94 c 1,3.87 1.13,6.7 0.49,8.47 a 23.78,23.78 0 0 0 -1,3.15 c -0.49,1.78 -0.81,2.91 -1,3.39 a 33.52,33.52 0 0 1 -1.7,4.36 36.77,36.77 0 0 0 -2.18,4.12 26.75,26.75 0 0 1 -1.21,3.15 q -2.89,7 5.57,10.41 8.23,3.39 9.93,4.6 8.72,5.56 7.75,4.85 a 19.22,19.22 0 0 1 4.85,5.81 c 0.48,0.64 1.53,2.42 3.14,5.32 1.61,2.9 2.51,4.61 2.67,5.09 a 3.23,3.23 0 0 1 0,3.39 9.46,9.46 0 0 0 -1,3.88 13.12,13.12 0 0 1 -1,3.39 31.85,31.85 0 0 1 -4.6,8.23 3.64,3.64 0 0 0 -1,1.7 q 0,-0.73 -6,8.47 -6,9.2 -7.27,16 v 3.87 a 7.34,7.34 0 0 0 1.94,5.33 q 2.17,3.15 10.41,-1 A 75.47,75.47 0 0 0 261,384 60.44,60.44 0 0 0 277,367 q 1.94,-2.65 7.75,-13.07 4.85,-8.24 5.33,-9 c 1.45,-1.29 2.82,-1.7 4.12,-1.21 1,0.48 1.45,1.05 1.45,1.69 q 0.24,4.61 -5.08,13.56 -15.73,27.96 -34.57,36.93 -8.23,3.63 -10.41,4.35 a 27.12,27.12 0 0 1 -6.3,1 q -13.08,0 -18.4,-12.59 -3.89,-8.47 -3.63,-15.5 a 48,48 0 0 1 1.16,-8.75 z m 3.39,-70.47 q 1.94,-0.24 4.36,-12.84 a 2.58,2.58 0 0 0 -0.72,-2.18 q -4.6,-0.24 -3.64,15.02 z" />
    <path
       id="path26"
       d="m 322.56,288.37 c 1.94,-0.32 3.23,-0.57 3.88,-0.73 a 10.33,10.33 0 0 0 1.69,-0.24 5.12,5.12 0 0 0 1.94,-0.24 2.77,2.77 0 0 1 1.94,0.24 q 7.74,3.15 11.14,17.19 1,4.13 1.45,4.6 3.87,2.43 16,1.46 10.17,-1 13.08,-2.43 4.11,-2.18 3.63,1.94 -0.48,3.88 -3.63,4.6 -14,2.91 -21.8,2.43 -6.53,-0.49 -5.81,-0.73 c -0.81,0.32 -1.29,1.21 -1.45,2.66 a 4.63,4.63 0 0 0 0.24,2.67 1,1 0 0 1 0.24,0.72 l -0.48,5.33 c -0.16,1 -0.41,2.34 -0.73,4.12 a 35.52,35.52 0 0 0 -0.48,4.12 c -0.16,1 -0.57,2.66 -1.21,5.08 a 120.39,120.39 0 0 1 -5.33,14.53 q -5.58,11.38 -5.09,10.42 a 47.22,47.22 0 0 1 -8.78,11.38 23.72,23.72 0 0 1 -3.87,3.15 36.78,36.78 0 0 1 -7.75,4.11 22.69,22.69 0 0 1 -19.86,-1.93 41.6,41.6 0 0 1 -13.08,-12.36 64.19,64.19 0 0 1 -4.36,-7.74 29.87,29.87 0 0 1 -2.42,-8 Q 270,344.07 270,345 a 69.4,69.4 0 0 1 0,-14.29 94.05,94.05 0 0 1 5.57,-21.56 55.94,55.94 0 0 1 8.47,-14.53 49.43,49.43 0 0 1 8,-8.47 q -1,0.72 5.08,-3.39 a 26,26 0 0 1 5.09,-2.67 21.65,21.65 0 0 1 8,-1.69 24.15,24.15 0 0 1 12.35,2.18 l 1.21,1 a 2.5,2.5 0 0 1 1.7,2.66 3.28,3.28 0 0 1 -2.43,2.91 6.6,6.6 0 0 0 -1.93,0.72 1.93,1.93 0 0 0 1.45,0.5 z m -7,1 a 14.76,14.76 0 0 0 -8.72,5.32 c -0.64,0.65 -1.45,1.46 -2.42,2.42 a 32.3,32.3 0 0 0 -2.18,2.67 34,34 0 0 0 -4.12,5.33 11.34,11.34 0 0 1 -1.21,2.42 26,26 0 0 0 -2.9,8 q -0.5,3.39 -1.94,13.32 a 28.6,28.6 0 0 0 0,7.51 26.77,26.77 0 0 0 0.73,5.33 q 0.72,3.63 1,5.08 a 36.31,36.31 0 0 0 1.69,6.3 35.78,35.78 0 0 0 9,13.8 12,12 0 0 0 4.85,2.67 c -1,-0.16 0.07,0.08 3.14,0.72 a 7.79,7.79 0 0 0 4.12,-0.72 14.35,14.35 0 0 0 4.12,-3.64 53.22,53.22 0 0 0 8.47,-18.64 110.38,110.38 0 0 0 2.67,-20.35 q 0.24,-3.39 0.24,-7.26 v -6.54 a 2.83,2.83 0 0 0 -1.94,-0.49 18,18 0 0 1 -10.9,-5.32 17.71,17.71 0 0 1 -5.32,-10.66 12.86,12.86 0 0 1 0,-3.63 8.32,8.32 0 0 1 1.59,-3.67 z m 13.09,4.11 a 19.11,19.11 0 0 0 -4.61,-2.66 5.14,5.14 0 0 0 -3.39,0.24 c -1.78,0.49 -1.94,2.34 -0.48,5.57 a 20.46,20.46 0 0 0 3.39,5.57 q 4.59,4.84 9,4.84 c 0.64,0.17 0.4,-2.18 -0.73,-7 a 13.92,13.92 0 0 0 -1.45,-4.36 11.66,11.66 0 0 0 -1.76,-2.23 z" />
    <path
       id="path28"
       d="m 363.79,331.72 q 2.67,-12.6 3.15,-13.81 2.42,-6 5.33,-8.72 c 0.16,0 0.48,-0.4 1,-1.21 a 11.8,11.8 0 0 1 5.81,-5.08 42.39,42.39 0 0 1 19.61,-2.42 13.63,13.63 0 0 1 5.33,1.69 5.1,5.1 0 0 1 2.67,3.39 c 0,0.81 0.48,1.21 1.45,1.21 a 5.7,5.7 0 0 1 4.12,2.67 l 1.21,1.21 c 0.8,0.32 1.29,1.37 1.45,3.14 a 15.83,15.83 0 0 1 -0.72,8.48 c -0.17,0.33 -0.65,2.59 -1.46,6.78 -0.65,2.59 -1.61,5.73 -2.9,9.45 q 0.48,-1.46 -1.94,3.63 c -0.49,1.13 -1.05,2.66 -1.7,4.6 a 31.52,31.52 0 0 1 -1.45,4.36 c -0.33,0.48 -1.54,2.75 -3.63,6.78 q -4.6,8.24 -5.09,10.66 v 2.18 q 0,6.3 4.84,13.07 c 2.26,3.39 3.64,5.42 4.12,6.06 l 1,1 c 1.78,1.45 3.39,1.37 4.85,-0.24 q 8.46,-9 23.49,-44.08 4.77,-10.68 9.67,-23.52 4.6,-11.62 4.12,-10.66 c 0.64,-1.45 1.37,-2.26 2.18,-2.42 2.74,0 3.95,0.57 3.63,1.69 q -13.56,50.63 -38.5,87.19 l -5.09,4.36 a 16.4,16.4 0 0 1 -6.3,2.9 26.45,26.45 0 0 1 -4.36,0.49 13.7,13.7 0 0 1 -5.81,-0.73 37.23,37.23 0 0 1 -10.9,-7.5 69.45,69.45 0 0 1 -13.8,-18.89 q -3.15,-5.82 -4.85,-15.5 A 178.85,178.85 0 0 1 363.06,346 q 0.74,-14 0.73,-14.28 z m 37,12.35 a 97.17,97.17 0 0 0 2.91,-11.63 52,52 0 0 0 0.73,-16.22 7.49,7.49 0 0 0 -0.73,-2.91 19.5,19.5 0 0 0 -4.84,6.54 80.27,80.27 0 0 0 -5.09,16.95 54.07,54.07 0 0 0 -0.24,15.26 l 0.24,5.09 0.48,-0.25 a 56.42,56.42 0 0 0 6.53,-12.83 z" />
    <path
       id="path30"
       d="m 471,387.9 q 0.24,-0.48 -0.24,-0.48 c 0,-0.16 -0.33,0.16 -1,1 a 20,20 0 0 0 -2.42,4.36 4.8,4.8 0 0 1 -1.21,1.69 c -0.65,0.81 -1.13,1.46 -1.45,1.94 a 11.83,11.83 0 0 1 1,-2.42 7.21,7.21 0 0 0 0.73,-2.43 0.49,0.49 0 0 0 -0.73,0.25 19.76,19.76 0 0 1 -4.36,4.12 l -0.24,0.24 q 0,0.24 -3.87,2.9 a 2.24,2.24 0 0 1 -1.94,0.49 5.72,5.72 0 0 0 -3.88,0.48 5.81,5.81 0 0 1 -3.14,0.24 q -1.46,0 -5.09,-1.93 a 7,7 0 0 1 -3.39,-5.57 43.35,43.35 0 0 1 -0.24,-12.11 51.88,51.88 0 0 1 5.81,-19.14 35.58,35.58 0 0 1 4.84,-7.26 3.21,3.21 0 0 0 0.49,-2.91 107.81,107.81 0 0 0 -5.33,-15.74 q -0.72,-1.69 -3.88,-8.23 a 57.37,57.37 0 0 1 -5.08,-16.71 q -1.22,-11.86 3.87,-20.35 a 44.84,44.84 0 0 1 6.54,-8.47 11.1,11.1 0 0 1 4.36,-2.18 c 0.49,-0.16 1.61,-0.49 3.39,-1 1.78,-0.64 4.52,-0.49 8.24,0.48 a 17.39,17.39 0 0 1 4.6,1.46 18.82,18.82 0 0 1 5.33,3.87 5.19,5.19 0 0 1 1.45,2.18 15.51,15.51 0 0 0 1.21,2.91 26.44,26.44 0 0 1 1.21,2.66 9.8,9.8 0 0 1 0,6.06 38,38 0 0 1 -2.66,7.26 l -1,1 -0.73,0.73 q -2.41,3.15 -2.9,3.63 c -1.46,1.29 -2.75,1.78 -3.88,1.45 -1.45,-0.48 -1.94,-1.37 -1.45,-2.66 a 51.47,51.47 0 0 0 2.9,-7.51 q 0.24,-0.48 1.94,-8 a 1.57,1.57 0 0 0 0,-1.21 1.07,1.07 0 0 0 -1.21,-1.21 6,6 0 0 0 -4.36,1.93 18.74,18.74 0 0 0 -3.15,4.85 9.87,9.87 0 0 0 -1,5.57 c 0.16,1.29 0.25,2.1 0.25,2.42 a 2.13,2.13 0 0 0 0,1.45 q 0.24,1.22 0.72,3.39 c 0.49,1.62 0.81,2.75 1,3.39 q 1.46,6.3 7.75,13.81 1.21,1.69 2.91,4.11 2.41,3.15 36.81,-22 c 1.94,1.13 2.9,2.34 2.9,3.63 a 5.06,5.06 0 0 1 -2.17,2.66 q 1,-0.72 -32.7,21.07 a 1,1 0 0 0 -0.48,1.46 60.1,60.1 0 0 1 3.63,7 q 2.91,6.54 3.15,9.45 a 17.54,17.54 0 0 1 -0.73,6.29 c 0.16,-0.32 0.16,0.24 0,1.7 q -0.24,1.21 -1.45,5.32 a 14.64,14.64 0 0 1 -0.73,2.42 3,3 0 0 1 -1.21,1.7 22.61,22.61 0 0 0 -1.7,2.18 87.27,87.27 0 0 0 -4.35,9 q -2.19,5.08 -1.7,4.36 z m -20,-25.43 -1,2.18 q -1.69,2.67 -5.33,13.32 a 9.53,9.53 0 0 0 -0.48,3.39 12.61,12.61 0 0 1 -0.24,3.15 17.45,17.45 0 0 0 -0.24,6.54 c 0,1 0.4,1.37 1.21,1.21 a 16.49,16.49 0 0 0 2.66,-0.24 5,5 0 0 0 4.36,-4.85 v -1 q 0,2.67 -0.49,-20.35 l -0.24,-3.39 c 0.7,0.21 0.63,0.21 -0.21,0.04 z" />
  </g>
  <rect
     id="rect34"
     style="fill:none"
     height="301"
     width="514"
     y="0"
     x="0" />
</svg>
